<svg xmlns="http://www.w3.org/2000/svg" xmlns:xlink="http://www.w3.org/1999/xlink" width="500" zoomAndPan="magnify" viewBox="0 0 375 374.999991" height="500" preserveAspectRatio="xMidYMid meet" version="1.0"><defs><g/><clipPath id="c1f76e1077"><path d="M 6.808594 6.808594 L 368.191406 6.808594 L 368.191406 368.191406 L 6.808594 368.191406 Z M 6.808594 6.808594 " clip-rule="nonzero"/></clipPath><clipPath id="c7cdb96cf9"><path d="M 187.5 6.808594 C 87.707031 6.808594 6.808594 87.707031 6.808594 187.5 C 6.808594 287.292969 87.707031 368.191406 187.5 368.191406 C 287.292969 368.191406 368.191406 287.292969 368.191406 187.5 C 368.191406 87.707031 287.292969 6.808594 187.5 6.808594 Z M 187.5 6.808594 " clip-rule="nonzero"/></clipPath><clipPath id="2340541ecf"><path d="M 36.132812 36.132812 L 338.847656 36.132812 L 338.847656 338.847656 L 36.132812 338.847656 Z M 36.132812 36.132812 " clip-rule="nonzero"/></clipPath><clipPath id="43798c8068"><path d="M 187.492188 338.847656 C 271.082031 338.847656 338.847656 271.082031 338.847656 187.492188 C 338.847656 103.898438 271.082031 36.132812 187.492188 36.132812 C 103.898438 36.132812 36.132812 103.898438 36.132812 187.492188 C 36.132812 271.082031 103.898438 338.847656 187.492188 338.847656 Z M 187.492188 338.847656 " clip-rule="nonzero"/></clipPath><clipPath id="7f41e01fd1"><path d="M 121.253906 147.28125 L 243.492188 147.28125 L 243.492188 233.140625 L 121.253906 233.140625 Z M 121.253906 147.28125 " clip-rule="nonzero"/></clipPath><clipPath id="e0db4608c8"><path d="M 199 92 L 276.832031 92 L 276.832031 188 L 199 188 Z M 199 92 " clip-rule="nonzero"/></clipPath><clipPath id="19bb5a539d"><path d="M 165 86.234375 L 208 86.234375 L 208 121 L 165 121 Z M 165 86.234375 " clip-rule="nonzero"/></clipPath><clipPath id="f4b2e1fc7e"><path d="M 198 92 L 276.832031 92 L 276.832031 188 L 198 188 Z M 198 92 " clip-rule="nonzero"/></clipPath><clipPath id="5232f35ab0"><path d="M 164 86.234375 L 191 86.234375 L 191 115 L 164 115 Z M 164 86.234375 " clip-rule="nonzero"/></clipPath><clipPath id="53afa0c339"><path d="M 221 202.1875 L 222.585938 202.1875 L 222.585938 233.140625 L 221 233.140625 Z M 221 202.1875 " clip-rule="nonzero"/></clipPath><clipPath id="47d9441c32"><path d="M 145 174.914062 L 148.890625 174.914062 L 148.890625 233.140625 L 145 233.140625 Z M 145 174.914062 " clip-rule="nonzero"/></clipPath></defs><g clip-path="url(#c1f76e1077)"><g clip-path="url(#c7cdb96cf9)"><path fill="#6c9add" d="M 6.808594 6.808594 L 368.191406 6.808594 L 368.191406 368.191406 L 6.808594 368.191406 Z M 6.808594 6.808594 " fill-opacity="1" fill-rule="nonzero"/></g></g><g clip-path="url(#2340541ecf)"><g clip-path="url(#43798c8068)"><path fill="#00419e" d="M 338.847656 338.847656 L 36.132812 338.847656 L 36.132812 36.132812 L 338.847656 36.132812 Z M 338.847656 338.847656 " fill-opacity="1" fill-rule="nonzero"/></g></g><g clip-path="url(#7f41e01fd1)"><path fill="#fef3f1" d="M 147.863281 188.949219 C 147.863281 188.949219 148.273438 196.226562 148.210938 197.054688 C 148.070312 199.046875 148.136719 204.949219 148.042969 206.945312 C 147.777344 212.492188 146.554688 221.53125 145.945312 227.269531 C 145.777344 228.859375 145.640625 231.363281 145.582031 232.886719 C 145.578125 232.980469 145.570312 233.058594 145.566406 233.140625 L 221.433594 233.140625 C 221.605469 230.992188 221.640625 226.949219 221.710938 225.875 C 222.0625 220.445312 221.722656 213.230469 221.722656 210.75 C 221.71875 207.621094 221.789062 204.34375 222.015625 202.3125 C 222.242188 200.28125 222.949219 195.695312 222.949219 195.695312 C 222.949219 195.695312 224.414062 201.753906 224.441406 201.816406 C 225.082031 203.3125 225.085938 204.84375 225.992188 206.203125 C 226.621094 207.148438 229.703125 207.324219 229.703125 207.324219 L 227.273438 201.441406 C 227.273438 201.441406 231.980469 195.261719 235.796875 193.992188 C 236.808594 193.65625 237.964844 193.679688 238.910156 193.15625 C 239.417969 192.871094 240.394531 192.679688 240.394531 192.679688 C 240.394531 192.679688 241.242188 190.175781 241.734375 188.902344 C 243.394531 184.636719 244.382812 179.828125 242.257812 175.578125 C 237.808594 166.683594 229.171875 160.960938 220.851562 156.207031 C 217.121094 154.074219 212.84375 152.113281 208.652344 151.0625 C 206.058594 150.417969 204.308594 149.828125 201.6875 149.351562 C 200.757812 149.183594 198.402344 147.429688 198.402344 147.429688 C 198.402344 147.429688 195.199219 150.570312 194.417969 151.304688 C 192.496094 153.113281 190.640625 154.609375 188.199219 155.726562 C 183.753906 157.765625 178.972656 156.804688 174.804688 154.53125 C 172.523438 153.285156 168.386719 149.511719 168.386719 149.511719 C 168.386719 149.511719 162.363281 150.980469 159.449219 151.46875 C 156.535156 151.953125 151.964844 152.480469 148.605469 153.726562 C 143.347656 155.679688 138.234375 159.414062 134.15625 160.742188 C 130.371094 161.976562 127.402344 162.5 127.402344 162.5 L 126.65625 165.355469 C 126.65625 165.355469 128.070312 168.410156 128.519531 170.316406 C 128.933594 172.070312 129.027344 173.808594 129.355469 175.578125 C 129.832031 178.128906 131.273438 186.234375 131.273438 186.234375 L 121.292969 191.125 C 121.292969 191.125 122.417969 193.1875 123.511719 194.390625 C 124.480469 195.453125 125.390625 195.671875 126.007812 195.710938 C 130.90625 196.035156 137.730469 193.320312 142.359375 191.929688 C 143.796875 191.5 147.863281 188.949219 147.863281 188.949219 " fill-opacity="1" fill-rule="evenodd"/></g><path fill="#ffe2c9" d="M 126.554688 165.195312 C 126.554688 165.195312 128.105469 159.542969 128.972656 157.042969 C 130.257812 153.339844 131.277344 150.476562 133.167969 147.023438 C 133.921875 145.644531 135.402344 144.375 136.632812 143.351562 C 138.660156 141.667969 140.847656 142.367188 143.476562 142.019531 C 145.867188 141.703125 148.570312 140.574219 149.355469 140.53125 C 151 140.441406 153.511719 140.550781 154.40625 139.765625 C 154.984375 139.253906 155.238281 138.800781 155.179688 138.0625 C 155.144531 137.558594 154.847656 136.625 154.847656 136.625 C 154.847656 136.625 156.074219 135.894531 156.484375 134.699219 C 156.992188 133.21875 155.585938 132.101562 155.585938 132.101562 C 155.585938 132.101562 156.894531 130.464844 156.960938 129.527344 C 157.066406 128.148438 154.996094 126.960938 154.996094 126.960938 C 154.996094 126.960938 156.003906 126.304688 156.558594 125.375 C 156.871094 124.859375 157 123.992188 156.835938 123.738281 C 156.042969 122.519531 154.164062 122.183594 152.601562 121.664062 C 150.777344 121.058594 148.988281 120.304688 147.183594 120.207031 C 146.089844 120.148438 142.304688 121.058594 142.304688 121.058594 C 142.304688 121.058594 142.152344 120.027344 142.1875 119.09375 C 142.230469 117.871094 142.460938 116.644531 142.480469 116.417969 C 142.597656 115.066406 143.058594 112.195312 142.273438 109.71875 C 141.945312 108.683594 141.003906 107.011719 139.71875 107.28125 C 138.601562 107.515625 139.09375 111.257812 138.78125 112.804688 C 138.175781 115.769531 136.65625 118.753906 135.269531 121.636719 C 134.117188 124.027344 133.15625 126.347656 131.964844 128.519531 C 129.628906 132.777344 126.226562 135.773438 123.152344 139.828125 C 119.617188 144.484375 116.195312 149.496094 114.863281 151.449219 C 112.367188 155.09375 109.03125 160.238281 106.878906 164.476562 C 104.636719 168.90625 101.5625 174.507812 100.519531 179.691406 C 100.085938 181.847656 99.523438 183.613281 99.988281 185.804688 C 100.269531 187.117188 100.328125 188.691406 101.082031 189.792969 C 101.832031 190.886719 102.402344 191.757812 103.574219 192.472656 C 108.515625 195.488281 116.285156 192.9375 121.101562 191.132812 C 124.382812 189.902344 131.265625 186.238281 131.265625 186.238281 C 131.265625 186.238281 131.765625 183.402344 132.011719 180.71875 C 132.164062 179.105469 132.253906 176.195312 131.8125 173.667969 C 131.519531 171.996094 130.921875 170.6875 130.203125 169.34375 C 129.398438 167.832031 126.554688 165.195312 126.554688 165.195312 " fill-opacity="1" fill-rule="evenodd"/><path fill="#ffe2c9" d="M 168.042969 149.796875 C 168.042969 149.796875 169.71875 148.867188 170.753906 146.414062 C 171.175781 145.417969 171.601562 143.804688 171.734375 141.917969 C 171.90625 139.523438 171.722656 136.902344 171.722656 136.902344 C 171.722656 136.902344 169.898438 134.457031 169.195312 132.898438 C 168.503906 131.355469 167.59375 126.886719 167.59375 126.886719 C 167.59375 126.886719 166.0625 126.882812 165.199219 126.152344 C 163.746094 124.921875 162.804688 123.460938 162.480469 121.640625 C 162.332031 120.808594 162.390625 119.535156 162.71875 118.6875 C 163.09375 117.710938 163.453125 117.125 164.441406 116.753906 C 165.28125 116.4375 166.296875 116.542969 166.808594 115.835938 C 169.652344 111.929688 171.347656 107.566406 175.148438 104.4375 C 176.765625 103.105469 178.25 102.050781 180.113281 101.058594 C 187.042969 97.363281 199.136719 96.210938 203.019531 104.753906 C 204.097656 107.121094 204.398438 110.105469 204.078125 112.671875 C 203.816406 114.757812 203.320312 120.351562 203.320312 120.351562 C 203.320312 120.351562 205.152344 120.863281 205.671875 121.679688 C 206.507812 122.988281 205.863281 124.5625 205.660156 126.074219 C 205.453125 127.617188 203.800781 129.265625 202.339844 130.039062 C 200.949219 130.769531 199.746094 130.660156 199.746094 130.660156 C 199.746094 130.660156 198.769531 132.691406 198.207031 133.675781 C 197.398438 135.085938 196.125 136.421875 196.125 136.421875 C 196.125 136.421875 195.691406 141.96875 196.167969 143.867188 C 196.589844 145.558594 198.597656 147.503906 198.597656 147.503906 C 198.597656 147.503906 196.421875 150.5 195.667969 151.332031 C 192.144531 155.226562 187.089844 157.359375 181.976562 157.960938 C 179.335938 158.269531 175.828125 157.410156 173.492188 155.949219 C 170.652344 154.171875 168.042969 149.796875 168.042969 149.796875 " fill-opacity="1" fill-rule="evenodd"/><path fill="#ffe2c9" d="M 226.984375 201.6875 C 226.984375 201.6875 228.738281 205.609375 230.007812 207.851562 C 231.101562 209.78125 232.992188 212.179688 234.566406 213.757812 C 235.300781 214.488281 237.636719 216.347656 238.5625 216.828125 C 240.371094 217.757812 241.234375 218.371094 243.320312 218.160156 C 244.558594 218.039062 246.050781 217.4375 247.046875 216.757812 C 250.960938 214.089844 253.269531 210.5625 255.183594 206.398438 C 257.234375 201.929688 257.652344 196.777344 258.035156 191.4375 C 258.289062 187.894531 258.652344 184.121094 259.039062 180.933594 C 259.539062 176.835938 260.121094 172.554688 260.988281 168.488281 C 261.324219 166.902344 261.703125 164.933594 263.28125 163.378906 C 266.171875 160.535156 270.742188 158.457031 272.203125 154.804688 C 272.671875 153.628906 270.792969 151.128906 270.792969 151.128906 C 270.792969 151.128906 271.113281 149.820312 271.039062 148.707031 C 271 148.113281 270.769531 147.480469 270.769531 147.480469 C 270.769531 147.480469 271.496094 146.089844 271.757812 145.507812 C 272.277344 144.34375 271.992188 143.554688 271.992188 143.554688 C 271.992188 143.554688 274.890625 141.707031 274.890625 140.5625 C 274.890625 139.574219 272.179688 138.519531 271.667969 138.542969 C 269.25 138.648438 267.773438 139.109375 265.351562 139.109375 C 264.71875 139.109375 262.78125 139.394531 262.25 139.789062 C 261.238281 140.546875 260.757812 143.402344 260.417969 144.417969 C 259.238281 147.960938 257.835938 151.40625 256.371094 154.832031 C 254.484375 159.230469 252.894531 163.707031 251.351562 168.238281 C 250.199219 171.625 249.410156 175.539062 247.398438 178.554688 C 246.105469 180.496094 243.0625 183.804688 243.0625 183.804688 C 243.0625 183.804688 242.367188 186.929688 241.890625 188.5625 C 241.609375 189.523438 240.460938 192.570312 240.460938 192.570312 C 240.460938 192.570312 238.078125 192.378906 237.601562 192.453125 C 236.378906 192.640625 235.070312 193.296875 233.804688 194.234375 C 232.539062 195.171875 230.386719 197.5 228.859375 199.25 C 228.242188 199.953125 226.984375 201.6875 226.984375 201.6875 " fill-opacity="1" fill-rule="evenodd"/><g clip-path="url(#e0db4608c8)"><path fill="#ffffff" d="M 222.121094 92.472656 L 276.71875 108.449219 L 267.660156 138.730469 C 267.660156 138.730469 266.605469 139.011719 265.644531 139.152344 C 264.046875 139.378906 262.417969 139.246094 262.171875 140.230469 C 261.925781 141.21875 262.738281 141.695312 263.769531 142.160156 C 265.285156 142.84375 267.4375 142.886719 267.4375 142.886719 C 267.4375 142.886719 265.609375 143.511719 264.097656 144.027344 C 262.035156 144.734375 260.078125 145.460938 259.71875 146.25 C 259.4375 146.867188 260.328125 147.730469 261.554688 148.078125 C 263.039062 148.5 264.945312 148.347656 264.945312 148.347656 C 264.945312 148.347656 263.636719 149.140625 262.265625 149.917969 C 260.96875 150.65625 259.621094 151.359375 259.296875 152.160156 C 258.480469 154.203125 261.265625 154.441406 261.265625 154.441406 C 261.265625 154.441406 260.378906 155.492188 260.636719 156.207031 C 260.894531 156.921875 262.296875 157.296875 262.296875 157.296875 L 253.605469 187.105469 L 199.167969 171.429688 L 222.121094 92.472656 " fill-opacity="1" fill-rule="evenodd"/></g><path fill="#ffffff" d="M 187.488281 131.851562 C 187.488281 131.851562 186.214844 131.800781 184.691406 131.730469 C 183.828125 131.6875 181.226562 131.351562 180.371094 131.210938 C 179.960938 131.140625 178.28125 130.75 178.28125 130.75 C 178.28125 130.75 178.566406 133.199219 178.859375 133.710938 C 179.199219 134.308594 180.042969 135.160156 180.601562 135.59375 C 182.3125 136.925781 185.085938 135.921875 186.128906 134.859375 C 187.175781 133.796875 187.488281 131.851562 187.488281 131.851562 " fill-opacity="1" fill-rule="evenodd"/><g clip-path="url(#19bb5a539d)"><path fill="#d59169" d="M 165.679688 116.136719 C 165.132812 114.136719 165.003906 107.867188 165.296875 104.851562 C 165.511719 102.625 166.027344 100.617188 166.871094 98.539062 C 167.8125 96.214844 169.535156 93.796875 171.347656 91.921875 C 174.636719 88.511719 180.105469 86.878906 184.734375 86.964844 C 187.738281 87.019531 189.878906 88.050781 192.570312 88.949219 C 194.777344 89.683594 196.984375 90.125 199.164062 90.847656 C 202.269531 91.886719 204.773438 94.496094 205.976562 97.445312 C 208.441406 103.503906 207.15625 108.671875 205.738281 114.636719 C 205.375 116.148438 203.761719 120.660156 203.761719 120.660156 C 203.761719 120.660156 202 120.730469 201.066406 119.015625 C 199.714844 116.519531 199.003906 114.808594 198.640625 112.304688 C 197.613281 105.230469 195.730469 107.15625 190.488281 108.074219 C 185.644531 108.917969 183.792969 107.367188 179.429688 106.992188 C 175.058594 106.617188 171.878906 110.808594 170.234375 113.5625 C 168.59375 116.3125 166.089844 117.636719 165.679688 116.136719 " fill-opacity="1" fill-rule="evenodd"/></g><path fill="#5b2714" d="M 261.152344 168.097656 C 261.125 168.097656 261.097656 168.09375 261.070312 168.085938 C 260.902344 168.042969 260.800781 167.871094 260.84375 167.699219 C 261.847656 163.742188 263.40625 162.632812 265.769531 160.957031 L 266.453125 160.464844 C 269.207031 158.480469 272.09375 155.65625 271.9375 154.148438 C 271.824219 153.0625 271.214844 151.960938 270.425781 151.402344 C 270.144531 151.203125 269.710938 150.988281 269.265625 151.097656 C 268.464844 151.289062 267.734375 151.722656 266.722656 152.324219 C 266.144531 152.667969 265.488281 153.058594 264.691406 153.476562 C 264.039062 153.820312 263.402344 154.082031 262.84375 154.316406 C 261.503906 154.875 260.804688 155.195312 260.871094 155.824219 C 260.910156 156.195312 261.082031 156.445312 261.40625 156.613281 C 263.078125 157.472656 267.777344 155.738281 268.691406 155.226562 C 268.847656 155.140625 269.039062 155.195312 269.125 155.347656 C 269.210938 155.5 269.15625 155.691406 269.003906 155.777344 C 268.140625 156.261719 263.160156 158.230469 261.113281 157.175781 C 260.601562 156.914062 260.296875 156.46875 260.238281 155.894531 C 260.117188 154.761719 261.214844 154.304688 262.601562 153.726562 C 263.148438 153.5 263.769531 153.242188 264.398438 152.914062 C 265.175781 152.503906 265.824219 152.117188 266.398438 151.777344 C 267.417969 151.167969 268.222656 150.691406 269.117188 150.476562 C 269.660156 150.347656 270.234375 150.488281 270.792969 150.882812 C 271.722656 151.539062 272.4375 152.824219 272.570312 154.082031 C 272.824219 156.519531 267.832031 160.257812 266.828125 160.980469 L 266.136719 161.472656 C 263.8125 163.125 262.40625 164.125 261.460938 167.855469 C 261.421875 168 261.292969 168.097656 261.152344 168.097656 " fill-opacity="1" fill-rule="nonzero"/><path fill="#5b2714" d="M 261.152344 154.652344 C 260.289062 154.652344 259.605469 154.390625 259.195312 153.886719 C 258.78125 153.375 258.722656 152.699219 259.03125 152.027344 C 259.46875 151.078125 260.597656 150.476562 262.160156 149.644531 C 262.949219 149.226562 263.839844 148.75 264.785156 148.152344 C 265.710938 147.566406 268.855469 145.738281 270.480469 146.875 C 271.375 147.503906 271.597656 148.875 271.136719 150.945312 C 271.097656 151.113281 270.929688 151.226562 270.757812 151.183594 C 270.585938 151.148438 270.476562 150.976562 270.515625 150.804688 C 270.910156 149.035156 270.769531 147.855469 270.113281 147.398438 C 269.082031 146.671875 266.863281 147.589844 265.128906 148.6875 C 264.164062 149.300781 263.257812 149.78125 262.460938 150.207031 C 261.007812 150.980469 259.957031 151.539062 259.609375 152.292969 C 259.40625 152.738281 259.433594 153.171875 259.691406 153.484375 C 260.109375 154 261.046875 154.148438 262.203125 153.886719 C 262.375 153.84375 262.542969 153.953125 262.582031 154.125 C 262.621094 154.296875 262.515625 154.46875 262.34375 154.507812 C 261.917969 154.601562 261.519531 154.652344 261.152344 154.652344 " fill-opacity="1" fill-rule="nonzero"/><path fill="#5b2714" d="M 263.011719 148.574219 C 261.183594 148.574219 259.921875 147.910156 259.515625 147.019531 C 259.214844 146.359375 259.453125 145.667969 260.125 145.257812 C 261.289062 144.554688 263.859375 143.75 265.808594 143.199219 C 267.699219 142.664062 271.015625 141.984375 272.046875 143.410156 C 272.648438 144.246094 272.347656 145.53125 271.121094 147.339844 C 271.027344 147.484375 270.828125 147.523438 270.679688 147.421875 C 270.535156 147.324219 270.5 147.125 270.597656 146.980469 C 271.625 145.464844 271.945312 144.359375 271.53125 143.78125 C 270.953125 142.984375 268.878906 142.992188 265.984375 143.8125 C 263.238281 144.585938 261.328125 145.273438 260.457031 145.800781 C 260.054688 146.046875 259.925781 146.386719 260.09375 146.753906 C 260.511719 147.671875 262.5625 148.5 265.804688 147.460938 C 265.96875 147.410156 266.152344 147.5 266.207031 147.667969 C 266.257812 147.835938 266.164062 148.015625 266 148.066406 C 264.894531 148.421875 263.886719 148.574219 263.011719 148.574219 " fill-opacity="1" fill-rule="nonzero"/><path fill="#5b2714" d="M 271.914062 143.847656 C 271.8125 143.847656 271.710938 143.796875 271.648438 143.703125 C 271.554688 143.558594 271.59375 143.359375 271.742188 143.265625 C 272.324219 142.882812 273.027344 142.386719 273.832031 141.792969 C 274.359375 141.40625 274.554688 140.976562 274.414062 140.511719 C 274.148438 139.65625 272.859375 138.917969 271.535156 138.871094 C 269.914062 138.808594 268.867188 138.988281 267.539062 139.214844 C 266.464844 139.394531 265.25 139.601562 263.457031 139.726562 C 262.9375 139.761719 262.578125 139.929688 262.464844 140.183594 C 262.375 140.394531 262.453125 140.683594 262.6875 140.972656 C 263.355469 141.808594 265.660156 142.984375 270.054688 142.117188 C 270.222656 142.082031 270.394531 142.195312 270.429688 142.367188 C 270.460938 142.539062 270.351562 142.707031 270.175781 142.742188 C 265.792969 143.609375 263.136719 142.546875 262.191406 141.371094 C 261.804688 140.890625 261.691406 140.367188 261.882812 139.929688 C 262.007812 139.648438 262.367188 139.164062 263.414062 139.09375 C 265.171875 138.96875 266.371094 138.765625 267.433594 138.585938 C 268.742188 138.363281 269.875 138.171875 271.558594 138.234375 C 273.15625 138.292969 274.679688 139.210938 275.019531 140.324219 C 275.148438 140.746094 275.21875 141.566406 274.210938 142.308594 C 273.394531 142.90625 272.683594 143.40625 272.089844 143.796875 C 272.035156 143.832031 271.976562 143.847656 271.914062 143.847656 " fill-opacity="1" fill-rule="nonzero"/><g clip-path="url(#f4b2e1fc7e)"><path fill="#5b2714" d="M 253.597656 187.449219 C 253.566406 187.449219 253.535156 187.445312 253.507812 187.4375 L 199.0625 171.664062 C 198.894531 171.613281 198.796875 171.4375 198.84375 171.269531 L 221.726562 92.328125 C 221.75 92.246094 221.804688 92.179688 221.878906 92.136719 C 221.953125 92.097656 222.042969 92.089844 222.121094 92.113281 L 276.566406 107.886719 C 276.734375 107.9375 276.832031 108.113281 276.785156 108.28125 L 268.378906 137.277344 L 267.914062 138.8125 C 267.863281 138.980469 267.6875 139.074219 267.515625 139.023438 C 267.351562 138.972656 267.253906 138.792969 267.304688 138.625 L 267.769531 137.09375 L 276.085938 108.410156 L 222.25 92.8125 L 199.546875 171.140625 L 253.378906 186.738281 L 261.925781 157.257812 C 261.972656 157.089844 262.144531 156.988281 262.320312 157.039062 C 262.488281 157.089844 262.585938 157.265625 262.535156 157.433594 L 253.902344 187.222656 C 253.863281 187.359375 253.734375 187.449219 253.597656 187.449219 " fill-opacity="1" fill-rule="nonzero"/></g><path fill="#5b2714" d="M 118.332031 184.734375 C 118.25 184.734375 118.171875 184.703125 118.109375 184.644531 C 117.984375 184.523438 117.980469 184.320312 118.105469 184.195312 C 121.800781 180.417969 124.675781 170.550781 126.992188 162.625 C 128.035156 159.046875 129.023438 155.667969 129.957031 153.253906 C 132.785156 145.921875 134.160156 144.847656 136.066406 143.355469 C 136.222656 143.234375 136.382812 143.105469 136.550781 142.972656 C 138.15625 141.6875 139.945312 141.679688 141.519531 141.675781 C 142.171875 141.671875 142.785156 141.667969 143.347656 141.582031 C 144.398438 141.410156 145.453125 141.152344 146.480469 140.90625 C 147.40625 140.679688 148.371094 140.449219 149.332031 140.277344 C 149.832031 140.191406 150.414062 140.152344 151.027344 140.109375 C 152.410156 140.015625 153.980469 139.90625 154.457031 139.1875 C 154.882812 138.542969 155.054688 138.015625 154.960938 137.65625 C 154.902344 137.441406 154.75 137.277344 154.488281 137.144531 C 153.90625 136.851562 153.429688 136.847656 152.808594 136.851562 C 152.570312 136.851562 152.308594 136.851562 152.027344 136.835938 L 151.777344 136.820312 C 150.84375 136.757812 149.433594 136.667969 148.171875 136.246094 C 148.003906 136.1875 147.914062 136.007812 147.96875 135.84375 C 148.027344 135.675781 148.207031 135.585938 148.375 135.644531 C 149.558594 136.042969 150.917969 136.128906 151.816406 136.183594 L 152.070312 136.199219 C 152.335938 136.21875 152.574219 136.21875 152.808594 136.21875 C 153.441406 136.214844 154.058594 136.21875 154.773438 136.574219 C 155.199219 136.792969 155.46875 137.101562 155.574219 137.492188 C 155.722656 138.046875 155.53125 138.71875 154.984375 139.539062 C 154.339844 140.519531 152.679688 140.632812 151.070312 140.742188 C 150.472656 140.785156 149.910156 140.824219 149.441406 140.90625 C 148.5 141.070312 147.546875 141.300781 146.628906 141.523438 C 145.59375 141.777344 144.523438 142.035156 143.449219 142.207031 C 142.835938 142.304688 142.199219 142.308594 141.523438 142.3125 C 139.980469 142.316406 138.382812 142.324219 136.945312 143.46875 C 136.777344 143.605469 136.613281 143.730469 136.457031 143.859375 C 134.632812 145.28125 133.3125 146.3125 130.546875 153.480469 C 129.625 155.875 128.644531 159.238281 127.605469 162.800781 C 125.148438 171.214844 122.363281 180.75 118.558594 184.640625 C 118.496094 184.703125 118.414062 184.734375 118.332031 184.734375 " fill-opacity="1" fill-rule="nonzero"/><path fill="#5b2714" d="M 154.386719 137.015625 C 154.261719 137.015625 154.144531 136.9375 154.09375 136.816406 C 154.027344 136.652344 154.105469 136.46875 154.269531 136.402344 C 155.574219 135.878906 156.203125 134.765625 156.246094 133.890625 C 156.273438 133.320312 156.050781 132.871094 155.632812 132.65625 C 154.640625 132.140625 153.519531 131.972656 152.339844 131.792969 C 151.117188 131.605469 149.855469 131.414062 148.746094 130.804688 C 148.59375 130.71875 148.539062 130.527344 148.621094 130.371094 C 148.707031 130.21875 148.898438 130.164062 149.054688 130.246094 C 150.0625 130.804688 151.214844 130.980469 152.433594 131.164062 C 153.617188 131.34375 154.835938 131.527344 155.921875 132.089844 C 156.574219 132.425781 156.917969 133.09375 156.878906 133.921875 C 156.828125 134.996094 156.074219 136.363281 154.507812 136.992188 C 154.46875 137.007812 154.429688 137.015625 154.386719 137.015625 " fill-opacity="1" fill-rule="nonzero"/><path fill="#5b2714" d="M 155.332031 132.417969 C 155.203125 132.417969 155.085938 132.34375 155.035156 132.214844 C 154.972656 132.054688 155.050781 131.871094 155.214844 131.804688 C 155.96875 131.511719 156.464844 130.84375 156.578125 129.976562 C 156.679688 129.171875 156.417969 128.394531 155.925781 128.035156 C 155.335938 127.605469 154.746094 127.488281 154 127.339844 C 153.460938 127.234375 152.851562 127.113281 152.140625 126.847656 C 151.582031 126.640625 151.113281 126.378906 150.660156 126.121094 C 149.753906 125.613281 149.039062 125.210938 147.9375 125.433594 C 147.769531 125.472656 147.597656 125.359375 147.5625 125.1875 C 147.527344 125.015625 147.640625 124.847656 147.808594 124.8125 C 149.144531 124.542969 150.03125 125.039062 150.972656 125.570312 C 151.402344 125.8125 151.847656 126.0625 152.363281 126.253906 C 153.023438 126.496094 153.609375 126.613281 154.125 126.714844 C 154.914062 126.875 155.597656 127.007812 156.300781 127.523438 C 156.984375 128.019531 157.34375 129.015625 157.207031 130.058594 C 157.066406 131.148438 156.410156 132.019531 155.449219 132.398438 C 155.410156 132.410156 155.371094 132.417969 155.332031 132.417969 " fill-opacity="1" fill-rule="nonzero"/><path fill="#5b2714" d="M 154.722656 127.332031 C 154.601562 127.332031 154.488281 127.265625 154.433594 127.152344 C 154.359375 126.992188 154.425781 126.800781 154.585938 126.726562 C 154.597656 126.71875 155.9375 126.074219 156.410156 125.128906 C 156.621094 124.710938 156.648438 124.339844 156.496094 124 C 156.03125 122.949219 154.007812 122.378906 153.140625 122.136719 C 152.542969 121.96875 151.933594 121.753906 151.34375 121.546875 C 149.828125 121.015625 148.261719 120.46875 146.6875 120.617188 C 145.582031 120.71875 144.476562 120.976562 143.40625 121.222656 C 142.46875 121.441406 141.5 121.664062 140.519531 121.789062 C 140.324219 121.816406 140.125 121.851562 139.929688 121.886719 C 139.390625 121.984375 138.832031 122.085938 138.257812 121.996094 C 138.082031 121.96875 137.960938 121.808594 137.988281 121.632812 C 138.015625 121.460938 138.175781 121.339844 138.351562 121.367188 C 138.824219 121.4375 139.304688 121.351562 139.816406 121.261719 C 140.023438 121.222656 140.230469 121.183594 140.4375 121.160156 C 141.386719 121.039062 142.34375 120.816406 143.261719 120.601562 C 144.351562 120.351562 145.476562 120.089844 146.625 119.980469 C 148.339844 119.820312 149.976562 120.390625 151.554688 120.949219 C 152.136719 121.148438 152.734375 121.359375 153.3125 121.523438 C 154.886719 121.964844 156.5625 122.574219 157.078125 123.742188 C 157.308594 124.261719 157.273438 124.820312 156.980469 125.414062 C 156.410156 126.554688 154.921875 127.273438 154.859375 127.300781 C 154.816406 127.324219 154.765625 127.332031 154.722656 127.332031 " fill-opacity="1" fill-rule="nonzero"/><path fill="#5b2714" d="M 108.964844 194.109375 C 105.457031 194.109375 102.816406 192.96875 101.269531 190.761719 C 98.339844 186.570312 99.390625 178.808594 104.230469 168.90625 C 109.550781 158.023438 113.832031 152.179688 117.609375 147.023438 C 118.675781 145.574219 119.679688 144.203125 120.648438 142.796875 C 123.332031 138.902344 125.234375 136.6875 126.910156 134.730469 C 127.992188 133.46875 129.015625 132.277344 130.121094 130.789062 C 131.933594 128.339844 132.90625 126.15625 133.84375 124.046875 C 134.363281 122.878906 134.898438 121.675781 135.566406 120.445312 C 136.398438 118.921875 137.316406 116.878906 137.855469 115.367188 C 138.339844 114 138.597656 112.75 138.648438 111.550781 C 138.65625 111.296875 138.65625 110.984375 138.660156 110.636719 C 138.671875 108.667969 138.722656 107.359375 139.335938 107.101562 C 139.910156 106.859375 140.480469 106.90625 140.984375 107.234375 C 142.507812 108.230469 143.035156 111.542969 143.050781 112.390625 C 143.070312 113.96875 142.511719 118.335938 142.488281 118.523438 C 142.476562 118.964844 142.472656 120.3125 142.652344 120.867188 C 142.703125 121.035156 142.613281 121.214844 142.445312 121.265625 C 142.277344 121.324219 142.097656 121.230469 142.046875 121.0625 C 141.796875 120.289062 141.851562 118.542969 141.855469 118.46875 C 141.863281 118.394531 142.433594 113.933594 142.414062 112.398438 C 142.398438 111.4375 141.828125 108.546875 140.632812 107.765625 C 140.308594 107.554688 139.964844 107.527344 139.582031 107.691406 C 139.3125 107.914062 139.300781 109.828125 139.296875 110.640625 C 139.292969 110.996094 139.292969 111.316406 139.28125 111.574219 C 139.230469 112.839844 138.960938 114.148438 138.453125 115.578125 C 137.90625 117.121094 136.972656 119.199219 136.125 120.75 C 135.46875 121.953125 134.9375 123.148438 134.425781 124.304688 C 133.472656 126.449219 132.488281 128.664062 130.632812 131.167969 C 129.511719 132.675781 128.484375 133.875 127.394531 135.144531 C 125.726562 137.085938 123.835938 139.292969 121.171875 143.15625 C 120.199219 144.570312 119.191406 145.945312 118.121094 147.402344 C 114.359375 152.535156 110.097656 158.355469 104.804688 169.183594 C 100.066406 178.871094 99 186.40625 101.789062 190.398438 C 103.488281 192.824219 106.523438 193.824219 110.808594 193.375 C 117.816406 192.640625 124.730469 189.359375 131.160156 185.921875 C 131.316406 185.839844 131.507812 185.898438 131.589844 186.054688 C 131.675781 186.207031 131.613281 186.402344 131.460938 186.484375 C 124.972656 189.953125 117.992188 193.261719 110.878906 194.007812 C 110.214844 194.078125 109.578125 194.109375 108.964844 194.109375 " fill-opacity="1" fill-rule="nonzero"/><path fill="#5b2714" d="M 132.292969 118.746094 C 132.269531 118.746094 132.242188 118.746094 132.21875 118.738281 C 132.046875 118.699219 131.941406 118.527344 131.980469 118.355469 C 131.988281 118.332031 132.582031 115.675781 130.890625 114.96875 C 128.664062 114.035156 124.066406 115 122.554688 115.320312 C 121.847656 115.46875 121.804688 115.476562 121.667969 115.332031 C 121.597656 115.257812 121.566406 115.148438 121.589844 115.046875 C 121.628906 114.871094 121.675781 114.847656 122.261719 114.597656 C 126.351562 112.839844 128.554688 111.214844 128.816406 109.757812 C 129.222656 107.449219 125.816406 104.304688 124.699219 103.273438 C 124.21875 102.832031 124.167969 102.785156 124.167969 102.617188 C 124.167969 102.53125 124.207031 102.441406 124.273438 102.378906 C 124.425781 102.238281 124.496094 102.265625 125.054688 102.460938 C 129.703125 104.097656 132.9375 104.324219 134.660156 103.128906 C 136.320312 101.976562 137.027344 98.128906 136.609375 92.570312 C 136.589844 92.320312 136.585938 92.246094 136.683594 92.136719 C 136.746094 92.074219 136.835938 92.039062 136.925781 92.042969 C 137.15625 92.050781 137.183594 92.121094 137.417969 92.78125 C 139.226562 97.855469 141.050781 100.671875 142.851562 101.148438 C 144.261719 101.523438 146.171875 100.664062 148.527344 98.59375 C 148.738281 98.40625 148.800781 98.355469 148.871094 98.320312 C 149 98.261719 149.164062 98.296875 149.253906 98.410156 C 149.410156 98.609375 149.300781 98.757812 149.105469 99.023438 C 147.316406 101.4375 146.308594 103.625 146.101562 105.53125 C 145.894531 107.472656 148.484375 108.445312 148.507812 108.457031 C 148.671875 108.515625 148.757812 108.699219 148.699219 108.863281 C 148.636719 109.03125 148.453125 109.113281 148.289062 109.054688 C 148.164062 109.007812 145.207031 107.894531 145.46875 105.464844 C 145.640625 103.882812 146.320312 102.132812 147.496094 100.25 C 146.183594 101.203125 144.34375 102.203125 142.6875 101.761719 C 140.207031 101.105469 138.332031 96.984375 137.34375 94.425781 C 137.445312 97.8125 137.128906 102.191406 135.023438 103.652344 C 132.53125 105.378906 128.050781 104.140625 125.730469 103.367188 C 127.269531 104.828125 129.851562 107.558594 129.441406 109.871094 C 129.117188 111.699219 126.476562 113.300781 124.429688 114.308594 C 126.539062 113.949219 129.398438 113.652344 131.136719 114.382812 C 133.324219 115.296875 132.632812 118.371094 132.601562 118.503906 C 132.566406 118.648438 132.433594 118.746094 132.292969 118.746094 " fill-opacity="1" fill-rule="nonzero"/><path fill="#5b2714" d="M 183.125 143.238281 C 179.808594 143.238281 176.554688 141.972656 173.765625 139.558594 C 169.574219 135.925781 167.09375 130.34375 167.300781 124.988281 C 167.308594 124.8125 167.476562 124.667969 167.628906 124.683594 C 167.804688 124.691406 167.941406 124.835938 167.9375 125.015625 C 167.738281 130.179688 170.128906 135.570312 174.183594 139.078125 C 177.488281 141.9375 181.472656 143.117188 185.398438 142.390625 C 189.8125 141.578125 197.273438 137.425781 199.730469 129.324219 C 199.78125 129.15625 199.957031 129.058594 200.128906 129.113281 C 200.292969 129.164062 200.390625 129.339844 200.339844 129.507812 C 197.796875 137.882812 190.082031 142.175781 185.511719 143.019531 C 184.71875 143.164062 183.917969 143.238281 183.125 143.238281 " fill-opacity="1" fill-rule="nonzero"/><path fill="#5b2714" d="M 167.296875 127.152344 C 167.285156 127.152344 167.273438 127.152344 167.261719 127.148438 C 163.644531 126.777344 161.96875 122.65625 162.152344 119.824219 C 162.238281 118.507812 162.824219 117.429688 163.804688 116.792969 C 164.625 116.257812 165.667969 116.097656 166.460938 116.386719 C 166.625 116.445312 166.710938 116.628906 166.652344 116.792969 C 166.589844 116.957031 166.40625 117.042969 166.242188 116.984375 C 165.632812 116.757812 164.8125 116.894531 164.152344 117.324219 C 163.34375 117.851562 162.859375 118.753906 162.789062 119.867188 C 162.621094 122.4375 164.105469 126.183594 167.328125 126.515625 C 167.503906 126.535156 167.628906 126.691406 167.609375 126.867188 C 167.59375 127.027344 167.457031 127.152344 167.296875 127.152344 " fill-opacity="1" fill-rule="nonzero"/><path fill="#5b2714" d="M 200.394531 130.953125 C 200.269531 130.953125 200.148438 130.945312 200.027344 130.925781 C 199.851562 130.898438 199.734375 130.738281 199.761719 130.5625 C 199.785156 130.386719 199.953125 130.269531 200.121094 130.296875 C 201.792969 130.550781 204.804688 128.207031 205.515625 125.558594 C 205.960938 123.894531 205.890625 122.609375 205.308594 121.839844 C 204.851562 121.234375 204.054688 120.917969 202.945312 120.90625 C 202.769531 120.902344 202.628906 120.757812 202.632812 120.582031 C 202.632812 120.410156 202.773438 120.269531 202.949219 120.269531 C 202.949219 120.269531 202.949219 120.269531 202.953125 120.269531 C 204.269531 120.289062 205.234375 120.6875 205.816406 121.457031 C 206.53125 122.398438 206.636719 123.835938 206.128906 125.722656 C 205.417969 128.375 202.527344 130.953125 200.394531 130.953125 " fill-opacity="1" fill-rule="nonzero"/><path fill="#5b2714" d="M 166.414062 122.28125 C 166.3125 122.28125 166.210938 122.234375 166.148438 122.144531 C 165.882812 121.753906 165.4375 121.148438 165.277344 121.023438 C 165.140625 120.917969 165.113281 120.71875 165.222656 120.578125 C 165.332031 120.441406 165.53125 120.414062 165.667969 120.519531 C 165.960938 120.75 166.558594 121.613281 166.675781 121.785156 C 166.773438 121.929688 166.738281 122.128906 166.59375 122.226562 C 166.539062 122.265625 166.476562 122.28125 166.414062 122.28125 " fill-opacity="1" fill-rule="nonzero"/><path fill="#5b2714" d="M 183.648438 125.917969 C 183.554688 125.917969 183.460938 125.878906 183.398438 125.796875 C 182.515625 124.6875 182.523438 123.824219 182.570312 123.507812 C 182.652344 122.933594 183 122.582031 183.335938 122.242188 C 183.808594 121.769531 184.25 121.320312 184.121094 120.160156 C 184.101562 119.988281 184.226562 119.828125 184.402344 119.808594 C 184.574219 119.789062 184.734375 119.917969 184.753906 120.089844 C 184.917969 121.554688 184.289062 122.183594 183.785156 122.691406 C 183.488281 122.992188 183.25 123.230469 183.199219 123.59375 C 183.175781 123.78125 183.148438 124.460938 183.898438 125.402344 C 184.007812 125.539062 183.984375 125.742188 183.847656 125.851562 C 183.789062 125.898438 183.71875 125.917969 183.648438 125.917969 " fill-opacity="1" fill-rule="nonzero"/><path fill="#5b2714" d="M 178.640625 131.101562 C 178.699219 132.207031 179.152344 135.261719 182.320312 135.832031 C 185.667969 136.429688 186.90625 133.242188 187.238281 132.113281 C 186.4375 132.101562 184.59375 132.058594 182.828125 131.851562 C 181.085938 131.644531 179.390625 131.277344 178.640625 131.101562 Z M 183.128906 136.542969 C 182.839844 136.542969 182.53125 136.515625 182.207031 136.457031 C 177.859375 135.675781 177.996094 130.730469 177.996094 130.683594 C 178 130.585938 178.046875 130.496094 178.125 130.441406 C 178.203125 130.382812 178.300781 130.359375 178.394531 130.386719 C 178.414062 130.390625 180.621094 130.949219 182.90625 131.21875 C 185.191406 131.488281 187.621094 131.476562 187.644531 131.476562 C 187.644531 131.476562 187.648438 131.476562 187.648438 131.476562 C 187.742188 131.476562 187.832031 131.519531 187.890625 131.59375 C 187.953125 131.667969 187.976562 131.765625 187.957031 131.859375 C 187.949219 131.910156 186.9375 136.542969 183.128906 136.542969 " fill-opacity="1" fill-rule="nonzero"/><path fill="#5b2714" d="M 178.839844 112.789062 C 178.777344 112.789062 178.714844 112.773438 178.660156 112.734375 C 177.472656 111.929688 175.421875 112.011719 174.449219 112.621094 C 174.296875 112.71875 174.101562 112.671875 174.007812 112.523438 C 173.914062 112.375 173.960938 112.175781 174.109375 112.085938 C 175.394531 111.277344 177.734375 111.335938 179.019531 112.210938 C 179.164062 112.308594 179.199219 112.507812 179.101562 112.652344 C 179.039062 112.742188 178.941406 112.789062 178.839844 112.789062 " fill-opacity="1" fill-rule="nonzero"/><path fill="#5b2714" d="M 195.804688 115.609375 C 195.726562 115.609375 195.648438 115.582031 195.585938 115.523438 C 194.507812 114.476562 192.636719 114.144531 191.566406 114.488281 C 191.398438 114.542969 191.21875 114.449219 191.167969 114.28125 C 191.113281 114.113281 191.207031 113.933594 191.371094 113.882812 C 192.613281 113.484375 194.746094 113.824219 196.027344 115.0625 C 196.152344 115.1875 196.15625 115.386719 196.035156 115.511719 C 195.972656 115.578125 195.890625 115.609375 195.804688 115.609375 " fill-opacity="1" fill-rule="nonzero"/><g clip-path="url(#5232f35ab0)"><path fill="#5b2714" d="M 165.507812 114.488281 C 165.351562 114.488281 165.214844 114.375 165.191406 114.214844 C 163.046875 99.445312 169.214844 88.71875 180.902344 86.894531 C 182.085938 86.710938 187.460938 86.304688 190.230469 87.867188 C 190.382812 87.953125 190.4375 88.148438 190.351562 88.300781 C 190.265625 88.453125 190.070312 88.507812 189.917969 88.421875 C 187.304688 86.945312 182.140625 87.347656 181 87.523438 C 169.691406 89.289062 163.730469 99.730469 165.820312 114.125 C 165.847656 114.296875 165.726562 114.460938 165.550781 114.484375 C 165.535156 114.488281 165.519531 114.488281 165.507812 114.488281 " fill-opacity="1" fill-rule="nonzero"/></g><path fill="#5b2714" d="M 204.464844 118.746094 C 204.429688 118.746094 204.390625 118.742188 204.351562 118.726562 C 204.1875 118.664062 204.105469 118.480469 204.167969 118.316406 C 208.804688 106.097656 206.988281 99.222656 204.644531 95.609375 C 202.644531 92.519531 199.394531 90.625 195.726562 90.40625 C 195.546875 90.394531 195.414062 90.246094 195.425781 90.070312 C 195.433594 89.894531 195.589844 89.757812 195.761719 89.769531 C 199.636719 90 203.070312 92.003906 205.179688 95.261719 C 207.597656 99 209.492188 106.074219 204.761719 118.542969 C 204.714844 118.667969 204.59375 118.746094 204.464844 118.746094 " fill-opacity="1" fill-rule="nonzero"/><path fill="#5b2714" d="M 190.707031 108.175781 C 190.535156 108.175781 190.394531 108.039062 190.390625 107.867188 C 190.386719 107.691406 190.523438 107.542969 190.699219 107.539062 C 194.464844 107.464844 197.957031 104.09375 199.03125 101.015625 C 199.089844 100.851562 199.273438 100.765625 199.4375 100.824219 C 199.605469 100.878906 199.691406 101.0625 199.632812 101.226562 C 198.644531 104.054688 195.222656 108.082031 190.714844 108.175781 C 190.710938 108.175781 190.707031 108.175781 190.707031 108.175781 " fill-opacity="1" fill-rule="nonzero"/><path fill="#5b2714" d="M 179.957031 108.539062 C 179.800781 108.539062 179.664062 108.421875 179.644531 108.261719 C 179.621094 108.089844 179.742188 107.929688 179.917969 107.90625 C 184.253906 107.355469 188.238281 104.6875 190.308594 100.945312 C 190.394531 100.792969 190.589844 100.738281 190.742188 100.824219 C 190.898438 100.90625 190.953125 101.101562 190.867188 101.253906 C 188.699219 105.171875 184.53125 107.960938 180 108.539062 C 179.984375 108.539062 179.972656 108.539062 179.957031 108.539062 " fill-opacity="1" fill-rule="nonzero"/><path fill="#5b2714" d="M 169.898438 112.257812 C 169.777344 112.257812 169.667969 112.191406 169.609375 112.078125 C 169.535156 111.921875 169.601562 111.730469 169.757812 111.652344 C 172.332031 110.417969 174.820312 107.503906 176.417969 103.867188 C 176.488281 103.707031 176.671875 103.632812 176.835938 103.703125 C 176.996094 103.773438 177.070312 103.960938 177 104.121094 C 175.34375 107.894531 172.738281 110.925781 170.035156 112.226562 C 169.992188 112.25 169.945312 112.257812 169.898438 112.257812 " fill-opacity="1" fill-rule="nonzero"/><path fill="#5b2714" d="M 201.082031 117.265625 C 201.023438 117.265625 200.96875 117.253906 200.917969 117.222656 C 198.6875 115.886719 198.144531 111.640625 198.324219 109.109375 C 198.335938 108.933594 198.507812 108.800781 198.664062 108.8125 C 198.839844 108.824219 198.972656 108.976562 198.960938 109.152344 C 198.785156 111.605469 199.378906 115.5625 201.242188 116.675781 C 201.394531 116.765625 201.445312 116.960938 201.351562 117.113281 C 201.292969 117.210938 201.1875 117.265625 201.082031 117.265625 " fill-opacity="1" fill-rule="nonzero"/><path fill="#5b2714" d="M 191.117188 121.136719 C 191.292969 120.34375 191.964844 119.816406 192.617188 119.960938 C 193.273438 120.105469 193.664062 120.863281 193.488281 121.65625 C 193.316406 122.449219 192.644531 122.976562 191.988281 122.832031 C 191.335938 122.6875 190.945312 121.929688 191.117188 121.136719 " fill-opacity="1" fill-rule="evenodd"/><path fill="#5b2714" d="M 175.023438 119.394531 C 175.035156 118.582031 175.585938 117.933594 176.257812 117.941406 C 176.925781 117.949219 177.460938 118.613281 177.449219 119.425781 C 177.4375 120.238281 176.886719 120.890625 176.21875 120.882812 C 175.546875 120.871094 175.011719 120.207031 175.023438 119.394531 " fill-opacity="1" fill-rule="evenodd"/><path fill="#5b2714" d="M 201.933594 126.320312 C 201.851562 126.320312 201.773438 126.292969 201.714844 126.234375 C 201.585938 126.113281 201.582031 125.914062 201.699219 125.785156 C 201.84375 125.632812 202.570312 124.878906 202.898438 124.699219 C 203.050781 124.617188 203.242188 124.671875 203.328125 124.824219 C 203.414062 124.980469 203.355469 125.175781 203.199219 125.257812 C 203.023438 125.351562 202.488281 125.878906 202.164062 126.222656 C 202.101562 126.289062 202.015625 126.320312 201.933594 126.320312 " fill-opacity="1" fill-rule="nonzero"/><g clip-path="url(#53afa0c339)"><path fill="#5b2714" d="M 221.136719 233.140625 L 221.777344 233.140625 C 222.191406 229.34375 222.101562 224.695312 222.003906 219.800781 C 221.890625 214.164062 221.777344 208.332031 222.363281 202.757812 C 222.382812 202.585938 222.253906 202.429688 222.082031 202.410156 C 221.898438 202.390625 221.75 202.519531 221.730469 202.691406 C 221.140625 208.304688 221.257812 214.15625 221.367188 219.816406 C 221.464844 224.714844 221.554688 229.371094 221.136719 233.140625 " fill-opacity="1" fill-rule="nonzero"/></g><g clip-path="url(#47d9441c32)"><path fill="#5b2714" d="M 146.546875 218.511719 C 145.957031 223.441406 145.398438 228.125 145.265625 233.140625 L 145.902344 233.140625 C 146.035156 228.160156 146.589844 223.5 147.179688 218.585938 C 147.78125 213.574219 148.40625 208.390625 148.59375 202.550781 C 148.699219 199.429688 148.535156 195.476562 148.351562 190.898438 C 148.160156 186.265625 147.945312 181.011719 147.945312 175.285156 C 147.945312 175.109375 147.804688 174.96875 147.628906 174.96875 C 147.453125 174.96875 147.308594 175.109375 147.308594 175.285156 C 147.308594 181.023438 147.523438 186.285156 147.714844 190.925781 C 147.898438 195.488281 148.0625 199.433594 147.960938 202.527344 C 147.769531 208.34375 147.148438 213.511719 146.546875 218.511719 " fill-opacity="1" fill-rule="nonzero"/></g><path fill="#5b2714" d="M 237.378906 204.210938 C 237.378906 204.210938 237.375 204.210938 237.375 204.210938 C 237.199219 204.207031 237.058594 204.058594 237.0625 203.882812 C 237.144531 200.171875 238.410156 196.902344 239.75 193.4375 C 240.824219 190.671875 241.929688 187.8125 242.578125 184.4375 C 242.609375 184.265625 242.777344 184.152344 242.949219 184.183594 C 243.121094 184.214844 243.234375 184.382812 243.203125 184.554688 C 242.542969 187.988281 241.425781 190.875 240.34375 193.667969 C 239.023438 197.078125 237.777344 200.300781 237.699219 203.898438 C 237.695312 204.070312 237.554688 204.210938 237.378906 204.210938 " fill-opacity="1" fill-rule="nonzero"/><path fill="#5b2714" d="M 242.933594 218.460938 C 242.273438 218.460938 241.59375 218.355469 240.894531 218.125 C 237.003906 216.851562 231.378906 212.976562 226.667969 201.777344 C 226.597656 201.613281 226.675781 201.429688 226.835938 201.359375 C 226.996094 201.292969 227.1875 201.367188 227.253906 201.53125 C 231.871094 212.507812 237.328125 216.285156 241.09375 217.523438 C 244.949219 218.785156 248.191406 215.898438 250.847656 212.902344 C 254.796875 208.449219 256.941406 202.34375 257.597656 193.6875 C 258.472656 182.113281 259.316406 174.03125 261.027344 166.960938 C 261.070312 166.789062 261.242188 166.6875 261.414062 166.726562 C 261.585938 166.765625 261.6875 166.9375 261.648438 167.109375 C 259.945312 174.136719 259.105469 182.195312 258.230469 193.734375 C 257.566406 202.539062 255.371094 208.761719 251.320312 213.328125 C 249.125 215.800781 246.28125 218.460938 242.933594 218.460938 " fill-opacity="1" fill-rule="nonzero"/><path fill="#5b2714" d="M 205.273438 150.574219 C 205.253906 150.574219 205.230469 150.570312 205.207031 150.566406 C 201.070312 149.6875 199.648438 148.75 198.09375 147.519531 C 195.742188 145.65625 194.90625 141.609375 195.800781 136.417969 C 195.832031 136.242188 195.996094 136.128906 196.167969 136.15625 C 196.34375 136.1875 196.457031 136.351562 196.425781 136.523438 C 195.574219 141.480469 196.324219 145.308594 198.488281 147.019531 C 199.976562 148.195312 201.335938 149.09375 205.339844 149.945312 C 205.511719 149.980469 205.621094 150.148438 205.585938 150.320312 C 205.550781 150.472656 205.421875 150.574219 205.273438 150.574219 " fill-opacity="1" fill-rule="nonzero"/><path fill="#5b2714" d="M 129.570312 162.539062 C 129.425781 162.539062 129.292969 162.4375 129.261719 162.289062 C 129.222656 162.117188 129.332031 161.949219 129.503906 161.910156 C 133.804688 160.984375 137.359375 158.980469 140.796875 157.039062 C 143.65625 155.421875 146.359375 153.898438 149.347656 153.054688 C 152.339844 152.207031 155.492188 151.765625 158.539062 151.34375 C 162.132812 150.84375 165.527344 150.371094 168.027344 149.28125 C 171.113281 147.9375 171.921875 142.101562 171.355469 136.914062 C 171.339844 136.742188 171.464844 136.585938 171.636719 136.566406 C 171.8125 136.542969 171.972656 136.671875 171.988281 136.847656 C 172.582031 142.265625 171.664062 148.390625 168.28125 149.863281 C 165.703125 150.988281 162.265625 151.46875 158.625 151.972656 C 155.601562 152.394531 152.472656 152.828125 149.519531 153.664062 C 146.605469 154.492188 143.9375 155.996094 141.109375 157.59375 C 137.628906 159.554688 134.035156 161.585938 129.636719 162.53125 C 129.617188 162.535156 129.59375 162.539062 129.570312 162.539062 " fill-opacity="1" fill-rule="nonzero"/><path fill="#5b2714" d="M 180.777344 158.3125 C 175.421875 158.3125 170.96875 155.492188 167.886719 150.140625 C 167.796875 149.992188 167.851562 149.796875 168.003906 149.707031 C 168.15625 149.621094 168.351562 149.671875 168.4375 149.824219 C 171.429688 155.019531 175.761719 157.757812 180.941406 157.675781 C 187.945312 157.59375 195.507812 152.316406 198.175781 147.433594 C 198.261719 147.28125 198.453125 147.222656 198.605469 147.308594 C 198.761719 147.394531 198.816406 147.585938 198.734375 147.742188 C 195.992188 152.757812 188.410156 158.226562 180.949219 158.3125 C 180.890625 158.3125 180.832031 158.3125 180.777344 158.3125 " fill-opacity="1" fill-rule="nonzero"/><path fill="#5b2714" d="M 126.121094 196.089844 C 126.078125 196.089844 126.035156 196.089844 125.992188 196.085938 C 124.296875 196.007812 122.621094 194.394531 121.015625 191.289062 C 120.933594 191.132812 120.996094 190.9375 121.152344 190.859375 C 121.308594 190.777344 121.5 190.839844 121.582031 190.996094 C 123.054688 193.84375 124.589844 195.386719 126.023438 195.453125 C 127.125 195.492188 128.238281 194.683594 129.304688 193.019531 C 130.195312 191.621094 130.984375 187.753906 131.472656 182.410156 L 131.496094 182.148438 C 131.871094 178.027344 132.257812 173.769531 130.277344 170.113281 C 129.535156 168.75 127.773438 166.648438 126.488281 165.363281 C 126.363281 165.242188 126.363281 165.039062 126.488281 164.914062 C 126.613281 164.789062 126.816406 164.789062 126.9375 164.914062 C 127.988281 165.964844 129.972656 168.222656 130.835938 169.8125 C 132.910156 173.636719 132.496094 178.191406 132.128906 182.207031 L 132.105469 182.464844 C 131.8125 185.667969 131.132812 191.335938 129.839844 193.359375 C 128.683594 195.171875 127.429688 196.089844 126.121094 196.089844 " fill-opacity="1" fill-rule="nonzero"/><path fill="#5b2714" d="M 126.683594 196.042969 C 126.523438 196.042969 126.386719 195.925781 126.367188 195.765625 C 126.34375 195.589844 126.46875 195.429688 126.644531 195.410156 C 129.855469 195 142.234375 192.617188 145.5 189.648438 C 145.628906 189.53125 145.828125 189.539062 145.949219 189.671875 C 146.066406 189.800781 146.054688 190 145.925781 190.117188 C 142.304688 193.414062 129.015625 195.746094 126.722656 196.039062 C 126.710938 196.042969 126.695312 196.042969 126.683594 196.042969 " fill-opacity="1" fill-rule="nonzero"/><path fill="#5b2714" d="M 228.941406 207.628906 C 227.578125 207.628906 226.113281 207.136719 225.503906 205.953125 C 225.011719 204.992188 224.941406 203.269531 227.40625 200.523438 C 227.902344 199.96875 228.40625 199.375 228.917969 198.769531 C 231.957031 195.171875 235.398438 191.101562 240.371094 192.257812 C 240.542969 192.300781 240.652344 192.46875 240.609375 192.640625 C 240.570312 192.8125 240.402344 192.917969 240.230469 192.878906 C 235.632812 191.804688 232.324219 195.722656 229.402344 199.179688 C 228.886719 199.792969 228.378906 200.390625 227.878906 200.949219 C 226.144531 202.882812 225.503906 204.554688 226.070312 205.664062 C 226.628906 206.75 228.226562 207.097656 229.476562 206.964844 C 229.644531 206.945312 229.808594 207.070312 229.828125 207.246094 C 229.847656 207.417969 229.722656 207.574219 229.546875 207.59375 C 229.351562 207.617188 229.148438 207.628906 228.941406 207.628906 " fill-opacity="1" fill-rule="nonzero"/><path fill="#5b2714" d="M 225.800781 206.136719 C 225.683594 206.136719 225.570312 206.074219 225.515625 205.960938 C 224.554688 204.042969 224.117188 201.949219 223.695312 199.921875 C 223.363281 198.324219 223.019531 196.671875 222.421875 195.117188 C 222.195312 194.53125 221.824219 193.695312 221.390625 192.734375 C 220.164062 189.996094 218.484375 186.246094 217.699219 182.796875 C 217.660156 182.625 217.769531 182.457031 217.9375 182.417969 C 218.113281 182.375 218.28125 182.484375 218.320312 182.65625 C 219.089844 186.042969 220.753906 189.757812 221.972656 192.472656 C 222.40625 193.445312 222.785156 194.285156 223.015625 194.886719 C 223.632812 196.492188 223.980469 198.171875 224.320312 199.792969 C 224.753906 201.871094 225.160156 203.832031 226.085938 205.675781 C 226.160156 205.835938 226.097656 206.027344 225.941406 206.105469 C 225.894531 206.128906 225.847656 206.136719 225.800781 206.136719 " fill-opacity="1" fill-rule="nonzero"/><path fill="#cc362c" d="M 256.578125 112.585938 C 255.335938 115.632812 256.941406 119.183594 260.160156 120.5 C 261.722656 121.140625 263.429688 121.164062 264.957031 120.566406 C 266.484375 119.972656 267.65625 118.832031 268.257812 117.359375 C 268.863281 115.886719 268.824219 114.25 268.152344 112.757812 C 267.476562 111.261719 266.246094 110.082031 264.683594 109.445312 C 263.8125 109.089844 262.910156 108.921875 261.980469 108.953125 C 259.570312 109.027344 257.453125 110.453125 256.578125 112.585938 Z M 262.660156 121.632812 C 261.734375 121.632812 260.804688 121.453125 259.917969 121.089844 C 256.375 119.640625 254.613281 115.71875 255.992188 112.34375 C 256.957031 109.980469 259.300781 108.402344 261.960938 108.316406 C 262.96875 108.285156 263.96875 108.464844 264.921875 108.855469 C 266.636719 109.554688 267.988281 110.847656 268.730469 112.496094 C 269.476562 114.152344 269.519531 115.964844 268.847656 117.601562 C 268.179688 119.238281 266.878906 120.5 265.1875 121.160156 C 264.375 121.476562 263.519531 121.632812 262.660156 121.632812 " fill-opacity="1" fill-rule="nonzero"/><path fill="#cc362c" d="M 262.402344 122.824219 C 262.363281 122.824219 262.324219 122.816406 262.28125 122.800781 C 262.121094 122.734375 262.042969 122.546875 262.109375 122.386719 C 263.378906 119.257812 265.523438 115.265625 266.945312 112.625 C 267.632812 111.347656 268.171875 110.339844 268.269531 110.0625 C 267.84375 110.316406 267.03125 110.902344 265.710938 112.101562 C 263.34375 114.246094 259.71875 118.335938 259.683594 118.378906 C 259.566406 118.507812 259.363281 118.519531 259.234375 118.40625 C 259.101562 118.289062 259.089844 118.085938 259.207031 117.957031 C 259.242188 117.914062 262.890625 113.796875 265.28125 111.628906 C 268.324219 108.871094 268.703125 109.214844 268.867188 109.355469 C 268.933594 109.417969 269.117188 109.578125 268.871094 110.273438 C 268.757812 110.59375 268.257812 111.519531 267.503906 112.925781 C 266.089844 115.554688 263.957031 119.53125 262.699219 122.625 C 262.648438 122.746094 262.527344 122.824219 262.402344 122.824219 " fill-opacity="1" fill-rule="nonzero"/><path fill="#cc362c" d="M 265.679688 119.125 C 265.5625 119.125 265.449219 119.058594 265.394531 118.949219 C 264.441406 117.027344 261.421875 114.808594 261.390625 114.785156 C 261.25 114.683594 261.21875 114.484375 261.324219 114.339844 C 261.429688 114.199219 261.628906 114.167969 261.769531 114.269531 C 261.898438 114.363281 264.941406 116.605469 265.964844 118.664062 C 266.039062 118.820312 265.976562 119.011719 265.820312 119.089844 C 265.773438 119.113281 265.726562 119.125 265.679688 119.125 " fill-opacity="1" fill-rule="nonzero"/><path fill="#cc362c" d="M 259.175781 114.304688 C 259.128906 114.304688 259.082031 114.296875 259.039062 114.273438 C 258.878906 114.195312 258.8125 114.003906 258.890625 113.847656 L 260.515625 110.53125 C 260.59375 110.375 260.785156 110.3125 260.941406 110.386719 C 261.101562 110.464844 261.164062 110.65625 261.085938 110.8125 L 259.460938 114.128906 C 259.40625 114.242188 259.292969 114.304688 259.175781 114.304688 " fill-opacity="1" fill-rule="nonzero"/><path fill="#cc362c" d="M 261.300781 113.519531 C 261.25 113.519531 261.199219 113.507812 261.148438 113.480469 L 258.40625 112.015625 C 258.25 111.929688 258.195312 111.738281 258.277344 111.582031 C 258.359375 111.425781 258.554688 111.371094 258.707031 111.453125 L 261.449219 112.921875 C 261.605469 113.003906 261.664062 113.195312 261.582031 113.351562 C 261.523438 113.457031 261.414062 113.519531 261.300781 113.519531 " fill-opacity="1" fill-rule="nonzero"/><path fill="#5b2714" d="M 257.832031 107.332031 C 257.804688 107.332031 257.773438 107.328125 257.746094 107.320312 L 238.652344 101.757812 C 238.484375 101.707031 238.386719 101.53125 238.4375 101.363281 C 238.488281 101.191406 238.660156 101.097656 238.832031 101.144531 L 257.921875 106.707031 C 258.09375 106.757812 258.1875 106.933594 258.140625 107.101562 C 258.097656 107.242188 257.972656 107.332031 257.832031 107.332031 " fill-opacity="1" fill-rule="nonzero"/><path fill="#5b2714" d="M 235.828125 107.738281 C 235.796875 107.738281 235.769531 107.738281 235.738281 107.726562 L 224.921875 104.574219 C 224.753906 104.527344 224.65625 104.351562 224.707031 104.179688 C 224.753906 104.011719 224.925781 103.914062 225.101562 103.964844 L 235.917969 107.117188 C 236.085938 107.167969 236.183594 107.34375 236.132812 107.511719 C 236.09375 107.648438 235.964844 107.738281 235.828125 107.738281 " fill-opacity="1" fill-rule="nonzero"/><path fill="#5b2714" d="M 222.054688 108.34375 L 223.964844 108.890625 L 224.476562 107.117188 L 222.566406 106.566406 Z M 224.179688 109.605469 C 224.152344 109.605469 224.125 109.597656 224.09375 109.59375 L 221.574219 108.867188 C 221.40625 108.820312 221.308594 108.640625 221.355469 108.472656 L 222.042969 106.085938 C 222.066406 106.003906 222.121094 105.9375 222.195312 105.894531 C 222.269531 105.855469 222.355469 105.84375 222.4375 105.867188 L 224.957031 106.59375 C 225.125 106.640625 225.222656 106.816406 225.175781 106.988281 L 224.488281 109.375 C 224.464844 109.457031 224.410156 109.523438 224.335938 109.566406 C 224.289062 109.589844 224.234375 109.605469 224.179688 109.605469 " fill-opacity="1" fill-rule="nonzero"/><path fill="#5b2714" d="M 220.796875 112.367188 L 222.707031 112.917969 L 223.21875 111.140625 L 221.308594 110.589844 Z M 222.925781 113.628906 C 222.894531 113.628906 222.867188 113.625 222.835938 113.617188 L 220.316406 112.890625 C 220.148438 112.84375 220.050781 112.667969 220.101562 112.5 L 220.785156 110.109375 C 220.808594 110.03125 220.863281 109.960938 220.9375 109.917969 C 221.011719 109.878906 221.097656 109.871094 221.179688 109.890625 L 223.699219 110.617188 C 223.867188 110.667969 223.96875 110.84375 223.917969 111.011719 L 223.230469 113.398438 C 223.207031 113.480469 223.152344 113.546875 223.078125 113.589844 C 223.03125 113.617188 222.980469 113.628906 222.925781 113.628906 " fill-opacity="1" fill-rule="nonzero"/><path fill="#5b2714" d="M 219.46875 116.503906 L 221.378906 117.054688 L 221.886719 115.277344 L 219.980469 114.730469 Z M 221.59375 117.765625 C 221.566406 117.765625 221.535156 117.761719 221.507812 117.753906 L 218.984375 117.027344 C 218.816406 116.980469 218.71875 116.804688 218.769531 116.636719 L 219.457031 114.246094 C 219.476562 114.164062 219.535156 114.097656 219.605469 114.054688 C 219.683594 114.015625 219.769531 114.007812 219.847656 114.03125 L 222.371094 114.753906 C 222.539062 114.804688 222.636719 114.980469 222.585938 115.148438 L 221.902344 117.535156 C 221.875 117.617188 221.824219 117.6875 221.75 117.726562 C 221.699219 117.753906 221.648438 117.765625 221.59375 117.765625 " fill-opacity="1" fill-rule="nonzero"/><path fill="#5b2714" d="M 230.90625 124.335938 C 230.875 124.335938 230.84375 124.335938 230.816406 124.324219 L 220 121.175781 C 219.828125 121.125 219.730469 120.949219 219.78125 120.78125 C 219.828125 120.609375 220.003906 120.511719 220.175781 120.5625 L 230.992188 123.714844 C 231.164062 123.765625 231.257812 123.941406 231.210938 124.109375 C 231.167969 124.246094 231.042969 124.335938 230.90625 124.335938 " fill-opacity="1" fill-rule="nonzero"/><path fill="#5b2714" d="M 217.132812 124.941406 L 219.042969 125.492188 L 219.550781 123.714844 L 217.644531 123.164062 Z M 219.257812 126.203125 C 219.230469 126.203125 219.199219 126.199219 219.167969 126.191406 L 216.648438 125.464844 C 216.480469 125.417969 216.382812 125.238281 216.433594 125.074219 L 217.117188 122.683594 C 217.140625 122.601562 217.195312 122.535156 217.269531 122.492188 C 217.34375 122.453125 217.429688 122.441406 217.511719 122.464844 L 220.035156 123.191406 C 220.113281 123.214844 220.183594 123.269531 220.222656 123.34375 C 220.265625 123.417969 220.277344 123.503906 220.253906 123.585938 L 219.566406 125.972656 C 219.539062 126.054688 219.488281 126.121094 219.410156 126.164062 C 219.363281 126.1875 219.3125 126.203125 219.257812 126.203125 " fill-opacity="1" fill-rule="nonzero"/><path fill="#5b2714" d="M 215.875 128.964844 L 217.785156 129.515625 L 218.296875 127.738281 L 216.386719 127.1875 Z M 218.003906 130.226562 C 217.972656 130.226562 217.945312 130.222656 217.914062 130.214844 L 215.394531 129.488281 C 215.226562 129.441406 215.128906 129.265625 215.175781 129.097656 L 215.863281 126.710938 C 215.886719 126.628906 215.941406 126.558594 216.015625 126.519531 C 216.089844 126.476562 216.171875 126.46875 216.257812 126.492188 L 218.777344 127.214844 C 218.945312 127.265625 219.042969 127.441406 218.992188 127.609375 L 218.308594 129.996094 C 218.285156 130.078125 218.230469 130.148438 218.15625 130.1875 C 218.109375 130.214844 218.054688 130.226562 218.003906 130.226562 " fill-opacity="1" fill-rule="nonzero"/><path fill="#5b2714" d="M 214.542969 133.105469 L 216.453125 133.652344 L 216.964844 131.875 L 215.054688 131.328125 Z M 216.671875 134.363281 C 216.640625 134.363281 216.613281 134.359375 216.582031 134.351562 L 214.0625 133.625 C 213.894531 133.578125 213.796875 133.402344 213.84375 133.234375 L 214.53125 130.84375 C 214.554688 130.765625 214.609375 130.695312 214.683594 130.65625 C 214.757812 130.613281 214.84375 130.605469 214.925781 130.628906 L 217.445312 131.351562 C 217.617188 131.402344 217.710938 131.578125 217.664062 131.746094 L 216.976562 134.132812 C 216.953125 134.214844 216.898438 134.285156 216.824219 134.324219 C 216.777344 134.351562 216.722656 134.363281 216.671875 134.363281 " fill-opacity="1" fill-rule="nonzero"/><path fill="#5b2714" d="M 225.859375 140.976562 C 225.828125 140.976562 225.800781 140.972656 225.769531 140.964844 L 214.953125 137.8125 C 214.785156 137.765625 214.6875 137.589844 214.734375 137.417969 C 214.785156 137.253906 214.960938 137.152344 215.128906 137.203125 L 225.949219 140.355469 C 226.117188 140.402344 226.214844 140.582031 226.164062 140.75 C 226.125 140.886719 225.996094 140.976562 225.859375 140.976562 " fill-opacity="1" fill-rule="nonzero"/><path fill="#5b2714" d="M 212.085938 141.582031 L 213.996094 142.132812 L 214.503906 140.355469 L 212.597656 139.804688 Z M 214.210938 142.84375 C 214.183594 142.84375 214.152344 142.839844 214.125 142.828125 L 211.605469 142.105469 C 211.523438 142.082031 211.453125 142.027344 211.414062 141.953125 C 211.371094 141.878906 211.363281 141.792969 211.386719 141.710938 L 212.074219 139.324219 C 212.121094 139.15625 212.296875 139.058594 212.46875 139.105469 L 214.988281 139.832031 C 215.070312 139.851562 215.136719 139.910156 215.179688 139.980469 C 215.21875 140.058594 215.230469 140.144531 215.207031 140.222656 L 214.519531 142.613281 C 214.476562 142.753906 214.351562 142.84375 214.210938 142.84375 " fill-opacity="1" fill-rule="nonzero"/><path fill="#5b2714" d="M 210.828125 145.605469 L 212.738281 146.15625 L 213.25 144.378906 L 211.34375 143.832031 Z M 212.957031 146.867188 C 212.925781 146.867188 212.898438 146.863281 212.867188 146.855469 L 210.347656 146.128906 C 210.269531 146.105469 210.199219 146.050781 210.160156 145.976562 C 210.117188 145.90625 210.105469 145.816406 210.128906 145.734375 L 210.816406 143.347656 C 210.867188 143.179688 211.039062 143.082031 211.210938 143.128906 L 213.730469 143.855469 C 213.8125 143.878906 213.882812 143.933594 213.921875 144.007812 C 213.960938 144.082031 213.972656 144.167969 213.949219 144.25 L 213.261719 146.636719 C 213.222656 146.777344 213.09375 146.867188 212.957031 146.867188 " fill-opacity="1" fill-rule="nonzero"/><path fill="#5b2714" d="M 209.5 149.746094 L 211.40625 150.292969 L 211.917969 148.515625 L 210.011719 147.96875 Z M 211.625 151.003906 C 211.597656 151.003906 211.566406 151 211.535156 150.992188 L 209.019531 150.265625 C 208.9375 150.242188 208.867188 150.1875 208.828125 150.113281 C 208.785156 150.042969 208.777344 149.953125 208.800781 149.871094 L 209.484375 147.484375 C 209.535156 147.316406 209.710938 147.21875 209.878906 147.269531 L 212.402344 147.992188 C 212.480469 148.015625 212.550781 148.070312 212.589844 148.144531 C 212.632812 148.21875 212.644531 148.304688 212.617188 148.386719 L 211.929688 150.773438 C 211.890625 150.914062 211.765625 151.003906 211.625 151.003906 " fill-opacity="1" fill-rule="nonzero"/><path fill="#5b2714" d="M 248.019531 165.769531 C 247.992188 165.769531 247.957031 165.765625 247.929688 165.757812 L 210.167969 154.445312 C 210 154.390625 209.902344 154.214844 209.953125 154.046875 C 210.007812 153.878906 210.183594 153.785156 210.351562 153.832031 L 248.109375 165.148438 C 248.28125 165.199219 248.375 165.375 248.324219 165.542969 C 248.28125 165.683594 248.15625 165.769531 248.019531 165.769531 " fill-opacity="1" fill-rule="nonzero"/><path fill="#5b2714" d="M 247.125 168.449219 C 247.09375 168.449219 247.0625 168.445312 247.03125 168.433594 L 209.273438 157.121094 C 209.105469 157.070312 209.007812 156.894531 209.058594 156.726562 C 209.109375 156.558594 209.285156 156.460938 209.457031 156.511719 L 247.214844 167.824219 C 247.382812 167.875 247.476562 168.050781 247.425781 168.222656 C 247.386719 168.359375 247.257812 168.449219 247.125 168.449219 " fill-opacity="1" fill-rule="nonzero"/><path fill="#5b2714" d="M 246.1875 171.414062 C 246.15625 171.414062 246.128906 171.40625 246.097656 171.398438 L 208.335938 160.085938 C 208.167969 160.035156 208.074219 159.855469 208.125 159.6875 C 208.175781 159.519531 208.351562 159.425781 208.519531 159.476562 L 246.28125 170.789062 C 246.449219 170.839844 246.542969 171.019531 246.492188 171.1875 C 246.453125 171.324219 246.324219 171.414062 246.1875 171.414062 " fill-opacity="1" fill-rule="nonzero"/><path fill="#5b2714" d="M 245.171875 174.539062 C 245.140625 174.539062 245.109375 174.535156 245.078125 174.527344 L 207.320312 163.210938 C 207.152344 163.164062 207.058594 162.988281 207.109375 162.816406 C 207.15625 162.648438 207.332031 162.550781 207.503906 162.601562 L 245.261719 173.917969 C 245.429688 173.96875 245.527344 174.144531 245.476562 174.316406 C 245.433594 174.453125 245.308594 174.539062 245.171875 174.539062 " fill-opacity="1" fill-rule="nonzero"/><path fill="#5b2714" d="M 248.84375 181.222656 C 248.8125 181.222656 248.785156 181.21875 248.753906 181.210938 L 237.9375 178.0625 C 237.769531 178.011719 237.671875 177.835938 237.722656 177.667969 C 237.769531 177.496094 237.945312 177.402344 238.113281 177.449219 L 248.929688 180.601562 C 249.101562 180.648438 249.199219 180.824219 249.148438 180.996094 C 249.105469 181.132812 248.980469 181.222656 248.84375 181.222656 " fill-opacity="1" fill-rule="nonzero"/><path fill="#5b2714" d="M 245.730469 114.675781 C 245.703125 114.675781 245.671875 114.671875 245.640625 114.664062 L 226.550781 109.101562 C 226.382812 109.050781 226.285156 108.875 226.335938 108.707031 C 226.382812 108.539062 226.558594 108.441406 226.730469 108.488281 L 245.820312 114.050781 C 245.988281 114.101562 246.085938 114.277344 246.039062 114.445312 C 245.996094 114.585938 245.871094 114.675781 245.730469 114.675781 " fill-opacity="1" fill-rule="nonzero"/><path fill="#5b2714" d="M 244.515625 118.757812 C 244.488281 118.757812 244.457031 118.753906 244.429688 118.746094 L 225.335938 113.183594 C 225.167969 113.132812 225.070312 112.957031 225.121094 112.789062 C 225.167969 112.617188 225.34375 112.519531 225.515625 112.570312 L 244.605469 118.132812 C 244.773438 118.183594 244.871094 118.359375 244.824219 118.527344 C 244.78125 118.667969 244.65625 118.757812 244.515625 118.757812 " fill-opacity="1" fill-rule="nonzero"/><path fill="#5b2714" d="M 243.308594 122.792969 C 243.28125 122.792969 243.25 122.789062 243.21875 122.78125 L 224.128906 117.21875 C 223.960938 117.171875 223.863281 116.992188 223.914062 116.824219 C 223.960938 116.65625 224.136719 116.558594 224.308594 116.609375 L 243.398438 122.171875 C 243.566406 122.21875 243.664062 122.398438 243.617188 122.566406 C 243.574219 122.703125 243.445312 122.792969 243.308594 122.792969 " fill-opacity="1" fill-rule="nonzero"/><path fill="#5b2714" d="M 240.792969 131.527344 C 240.761719 131.527344 240.734375 131.523438 240.703125 131.515625 L 221.609375 125.953125 C 221.441406 125.902344 221.34375 125.726562 221.394531 125.558594 C 221.445312 125.390625 221.617188 125.292969 221.789062 125.34375 L 240.878906 130.90625 C 241.050781 130.953125 241.148438 131.128906 241.097656 131.300781 C 241.054688 131.4375 240.929688 131.527344 240.792969 131.527344 " fill-opacity="1" fill-rule="nonzero"/><path fill="#5b2714" d="M 239.574219 135.609375 C 239.546875 135.609375 239.515625 135.605469 239.488281 135.597656 L 220.394531 130.035156 C 220.226562 129.984375 220.128906 129.808594 220.179688 129.640625 C 220.230469 129.472656 220.402344 129.375 220.574219 129.425781 L 239.664062 134.984375 C 239.835938 135.035156 239.929688 135.210938 239.882812 135.378906 C 239.839844 135.519531 239.714844 135.609375 239.574219 135.609375 " fill-opacity="1" fill-rule="nonzero"/><path fill="#5b2714" d="M 238.371094 139.648438 C 238.339844 139.648438 238.3125 139.644531 238.28125 139.632812 L 219.1875 134.070312 C 219.019531 134.023438 218.921875 133.847656 218.972656 133.679688 C 219.023438 133.511719 219.191406 133.410156 219.363281 133.460938 L 238.457031 139.023438 C 238.628906 139.074219 238.722656 139.25 238.675781 139.417969 C 238.632812 139.558594 238.507812 139.648438 238.371094 139.648438 " fill-opacity="1" fill-rule="nonzero"/><path fill="#5b2714" d="M 236.199219 148.164062 C 236.167969 148.164062 236.140625 148.160156 236.109375 148.152344 L 217.019531 142.589844 C 216.851562 142.539062 216.753906 142.363281 216.804688 142.195312 C 216.851562 142.027344 217.027344 141.929688 217.195312 141.980469 L 236.289062 147.539062 C 236.457031 147.589844 236.554688 147.765625 236.503906 147.9375 C 236.464844 148.074219 236.335938 148.164062 236.199219 148.164062 " fill-opacity="1" fill-rule="nonzero"/><path fill="#5b2714" d="M 234.984375 152.246094 C 234.953125 152.246094 234.925781 152.242188 234.894531 152.234375 L 215.804688 146.671875 C 215.636719 146.621094 215.539062 146.445312 215.585938 146.277344 C 215.636719 146.109375 215.8125 146.007812 215.980469 146.0625 L 235.074219 151.625 C 235.242188 151.671875 235.339844 151.847656 235.289062 152.015625 C 235.25 152.15625 235.121094 152.246094 234.984375 152.246094 " fill-opacity="1" fill-rule="nonzero"/><path fill="#5b2714" d="M 233.773438 156.28125 C 233.746094 156.28125 233.71875 156.277344 233.6875 156.269531 L 214.59375 150.707031 C 214.425781 150.660156 214.328125 150.484375 214.378906 150.3125 C 214.429688 150.144531 214.601562 150.046875 214.773438 150.097656 L 233.863281 155.660156 C 234.035156 155.710938 234.132812 155.886719 234.082031 156.054688 C 234.039062 156.191406 233.914062 156.28125 233.773438 156.28125 " fill-opacity="1" fill-rule="nonzero"/><path fill="#5b2714" d="M 221.960938 112.535156 C 221.914062 112.535156 221.863281 112.527344 221.820312 112.507812 C 221.59375 112.398438 221.566406 112.234375 221.394531 110.757812 L 221.347656 110.363281 C 221.328125 110.191406 221.453125 110.03125 221.625 110.011719 C 221.796875 109.992188 221.957031 110.113281 221.980469 110.289062 L 222.027344 110.683594 C 222.066406 111.027344 222.113281 111.425781 222.15625 111.707031 C 222.308594 111.597656 222.492188 111.464844 222.6875 111.324219 C 223.1875 110.964844 223.761719 110.550781 224.132812 110.308594 C 224.28125 110.210938 224.476562 110.253906 224.574219 110.402344 C 224.667969 110.546875 224.628906 110.746094 224.484375 110.84375 C 224.117188 111.078125 223.550781 111.488281 223.058594 111.839844 C 222.652344 112.136719 222.292969 112.390625 222.140625 112.488281 C 222.089844 112.519531 222.023438 112.535156 221.960938 112.535156 " fill-opacity="1" fill-rule="nonzero"/><path fill="#5b2714" d="M 218.554688 125.242188 C 218.550781 125.242188 218.550781 125.242188 218.546875 125.242188 C 218.457031 125.238281 218.339844 125.1875 218.28125 125.117188 C 217.953125 124.730469 217.902344 124.097656 217.855469 123.484375 C 217.828125 123.164062 217.804688 122.863281 217.746094 122.65625 C 217.691406 122.488281 217.789062 122.3125 217.957031 122.261719 C 218.128906 122.210938 218.300781 122.304688 218.351562 122.476562 C 218.433594 122.746094 218.460938 123.078125 218.488281 123.433594 C 218.519531 123.800781 218.550781 124.203125 218.648438 124.476562 C 218.871094 124.265625 219.226562 123.871094 219.503906 123.566406 C 220.011719 123.003906 220.496094 122.472656 220.808594 122.253906 C 220.953125 122.152344 221.148438 122.183594 221.25 122.328125 C 221.351562 122.472656 221.316406 122.671875 221.175781 122.773438 C 220.917969 122.953125 220.417969 123.507812 219.976562 123.992188 C 219.0625 125 218.816406 125.242188 218.554688 125.242188 " fill-opacity="1" fill-rule="nonzero"/><path fill="#5b2714" d="M 210.535156 150.105469 C 210.460938 150.105469 210.382812 150.089844 210.328125 150.054688 C 210.078125 149.890625 210.070312 149.511719 210.070312 148.441406 C 210.070312 148.003906 210.070312 147.460938 210.023438 147.296875 C 209.972656 147.128906 210.066406 146.949219 210.234375 146.902344 C 210.40625 146.847656 210.582031 146.945312 210.632812 147.113281 C 210.703125 147.351562 210.707031 147.773438 210.707031 148.441406 C 210.707031 148.628906 210.707031 148.859375 210.710938 149.066406 C 211.257812 148.386719 212.289062 147.199219 213.425781 146.292969 C 213.566406 146.183594 213.765625 146.207031 213.875 146.34375 C 213.984375 146.480469 213.960938 146.683594 213.824219 146.789062 C 212.234375 148.054688 210.820312 149.957031 210.804688 149.976562 C 210.773438 150.023438 210.730469 150.058594 210.675781 150.082031 C 210.636719 150.097656 210.585938 150.105469 210.535156 150.105469 " fill-opacity="1" fill-rule="nonzero"/><path fill="#5b2714" d="M 175.8125 126.992188 C 175.421875 126.992188 175.027344 126.953125 174.632812 126.871094 C 171.21875 126.160156 169.011719 122.53125 169.71875 118.777344 C 169.789062 118.390625 169.890625 118.015625 170.019531 117.660156 C 170.074219 117.492188 170.261719 117.40625 170.421875 117.464844 C 170.589844 117.523438 170.675781 117.703125 170.617188 117.871094 C 170.503906 118.199219 170.410156 118.542969 170.34375 118.894531 C 169.703125 122.308594 171.683594 125.609375 174.761719 126.246094 C 176.144531 126.535156 177.582031 126.246094 178.800781 125.429688 C 180.1875 124.5 181.171875 122.96875 181.496094 121.222656 C 181.585938 120.753906 181.625 120.273438 181.617188 119.800781 C 181.613281 119.625 181.753906 119.476562 181.929688 119.476562 C 182.117188 119.480469 182.25 119.613281 182.253906 119.785156 C 182.261719 120.308594 182.21875 120.828125 182.121094 121.339844 C 181.765625 123.253906 180.683594 124.933594 179.152344 125.957031 C 178.136719 126.640625 176.980469 126.992188 175.8125 126.992188 " fill-opacity="1" fill-rule="nonzero"/><path fill="#5b2714" d="M 192.179688 129.378906 C 191.785156 129.378906 191.390625 129.339844 191 129.257812 C 187.582031 128.546875 185.378906 124.917969 186.082031 121.164062 C 186.144531 120.828125 186.230469 120.5 186.335938 120.183594 C 186.390625 120.015625 186.566406 119.925781 186.734375 119.980469 C 186.902344 120.035156 186.992188 120.21875 186.9375 120.382812 C 186.84375 120.671875 186.765625 120.976562 186.707031 121.28125 C 186.066406 124.695312 188.050781 127.996094 191.125 128.632812 C 192.507812 128.921875 193.945312 128.632812 195.164062 127.816406 C 196.550781 126.886719 197.535156 125.355469 197.863281 123.609375 C 197.933594 123.226562 197.972656 122.832031 197.980469 122.441406 C 197.984375 122.269531 198.132812 122.140625 198.304688 122.128906 C 198.480469 122.132812 198.621094 122.28125 198.617188 122.453125 C 198.609375 122.878906 198.566406 123.308594 198.488281 123.730469 C 198.128906 125.640625 197.046875 127.324219 195.519531 128.34375 C 194.5 129.027344 193.34375 129.378906 192.179688 129.378906 " fill-opacity="1" fill-rule="nonzero"/><path fill="#5b2714" d="M 186.234375 122.179688 C 186.160156 122.179688 186.082031 122.152344 186.019531 122.097656 C 185.082031 121.25 183.382812 120.792969 182.082031 121.605469 C 181.933594 121.695312 181.738281 121.652344 181.644531 121.503906 C 181.550781 121.355469 181.597656 121.15625 181.746094 121.066406 C 183.308594 120.085938 185.335938 120.621094 186.445312 121.625 C 186.578125 121.742188 186.585938 121.945312 186.46875 122.074219 C 186.40625 122.144531 186.320312 122.179688 186.234375 122.179688 " fill-opacity="1" fill-rule="nonzero"/><path fill="#5b2714" d="M 169.835938 120.179688 C 169.726562 120.179688 169.621094 120.121094 169.558594 120.019531 L 167.875 117.140625 C 167.785156 116.988281 167.835938 116.792969 167.988281 116.707031 C 168.140625 116.617188 168.335938 116.667969 168.421875 116.820312 L 170.109375 119.699219 C 170.199219 119.851562 170.148438 120.046875 169.996094 120.132812 C 169.945312 120.164062 169.890625 120.179688 169.835938 120.179688 " fill-opacity="1" fill-rule="nonzero"/><path fill="#5b2714" d="M 198.238281 123.988281 C 198.132812 123.988281 198.035156 123.9375 197.972656 123.847656 C 197.875 123.703125 197.910156 123.507812 198.058594 123.40625 L 200.835938 121.511719 C 200.976562 121.417969 201.175781 121.453125 201.277344 121.597656 C 201.375 121.742188 201.335938 121.941406 201.191406 122.039062 L 198.414062 123.933594 C 198.359375 123.96875 198.296875 123.988281 198.238281 123.988281 " fill-opacity="1" fill-rule="nonzero"/><g fill="#000000" fill-opacity="0.9412"><g transform="translate(110.523449, 278.609109)"><g><path d="M 8.625 -20.90625 L 8.625 -15.65625 L 17.09375 -15.65625 L 17.09375 -10.765625 L 8.625 -10.765625 L 8.625 -5.0625 L 18.203125 -5.0625 L 18.203125 0 L 2.296875 0 L 2.296875 -25.96875 L 18.203125 -25.96875 L 18.203125 -20.90625 Z M 8.625 -20.90625 "/></g></g></g><g fill="#000000" fill-opacity="0.9412"><g transform="translate(130.534591, 278.609109)"><g><path d="M 18.203125 0 L 12.90625 -7.953125 L 8.25 0 L 1.078125 0 L 9.390625 -13.203125 L 0.890625 -25.96875 L 8.25 -25.96875 L 13.46875 -18.125 L 18.0625 -25.96875 L 25.234375 -25.96875 L 16.984375 -12.875 L 25.5625 0 Z M 18.203125 0 "/></g></g></g><g fill="#000000" fill-opacity="0.9412"><g transform="translate(156.981856, 278.609109)"><g><path d="M 18.46875 -4.59375 L 8.765625 -4.59375 L 7.21875 0 L 0.59375 0 L 9.984375 -25.96875 L 17.3125 -25.96875 L 26.71875 0 L 20.015625 0 Z M 16.828125 -9.46875 L 13.609375 -18.984375 L 10.4375 -9.46875 Z M 16.828125 -9.46875 "/></g></g></g><g fill="#000000" fill-opacity="0.9412"><g transform="translate(184.242888, 278.609109)"><g><path d="M 31.703125 -25.96875 L 31.703125 0 L 25.375 0 L 25.375 -15.578125 L 19.578125 0 L 14.46875 0 L 8.625 -15.609375 L 8.625 0 L 2.296875 0 L 2.296875 -25.96875 L 9.765625 -25.96875 L 17.0625 -7.984375 L 24.265625 -25.96875 Z M 31.703125 -25.96875 "/></g></g></g><g fill="#000000" fill-opacity="0.9412"><g transform="translate(218.198959, 278.609109)"><g><path d="M 8.625 -20.90625 L 8.625 -15.65625 L 17.09375 -15.65625 L 17.09375 -10.765625 L 8.625 -10.765625 L 8.625 -5.0625 L 18.203125 -5.0625 L 18.203125 0 L 2.296875 0 L 2.296875 -25.96875 L 18.203125 -25.96875 L 18.203125 -20.90625 Z M 8.625 -20.90625 "/></g></g></g><g fill="#000000" fill-opacity="0.9412"><g transform="translate(238.210101, 278.609109)"><g><path d="M 25.53125 0 L 19.203125 0 L 8.625 -16.015625 L 8.625 0 L 2.296875 0 L 2.296875 -25.96875 L 8.625 -25.96875 L 19.203125 -9.875 L 19.203125 -25.96875 L 25.53125 -25.96875 Z M 25.53125 0 "/></g></g></g><g fill="#ffffff" fill-opacity="1"><g transform="translate(109.737375, 276.18983)"><g><path d="M 8.625 -20.90625 L 8.625 -15.65625 L 17.09375 -15.65625 L 17.09375 -10.765625 L 8.625 -10.765625 L 8.625 -5.0625 L 18.203125 -5.0625 L 18.203125 0 L 2.296875 0 L 2.296875 -25.96875 L 18.203125 -25.96875 L 18.203125 -20.90625 Z M 8.625 -20.90625 "/></g></g></g><g fill="#ffffff" fill-opacity="1"><g transform="translate(129.748517, 276.18983)"><g><path d="M 18.203125 0 L 12.90625 -7.953125 L 8.25 0 L 1.078125 0 L 9.390625 -13.203125 L 0.890625 -25.96875 L 8.25 -25.96875 L 13.46875 -18.125 L 18.0625 -25.96875 L 25.234375 -25.96875 L 16.984375 -12.875 L 25.5625 0 Z M 18.203125 0 "/></g></g></g><g fill="#ffffff" fill-opacity="1"><g transform="translate(156.195782, 276.18983)"><g><path d="M 18.46875 -4.59375 L 8.765625 -4.59375 L 7.21875 0 L 0.59375 0 L 9.984375 -25.96875 L 17.3125 -25.96875 L 26.71875 0 L 20.015625 0 Z M 16.828125 -9.46875 L 13.609375 -18.984375 L 10.4375 -9.46875 Z M 16.828125 -9.46875 "/></g></g></g><g fill="#ffffff" fill-opacity="1"><g transform="translate(183.456814, 276.18983)"><g><path d="M 31.703125 -25.96875 L 31.703125 0 L 25.375 0 L 25.375 -15.578125 L 19.578125 0 L 14.46875 0 L 8.625 -15.609375 L 8.625 0 L 2.296875 0 L 2.296875 -25.96875 L 9.765625 -25.96875 L 17.0625 -7.984375 L 24.265625 -25.96875 Z M 31.703125 -25.96875 "/></g></g></g><g fill="#ffffff" fill-opacity="1"><g transform="translate(217.412885, 276.18983)"><g><path d="M 8.625 -20.90625 L 8.625 -15.65625 L 17.09375 -15.65625 L 17.09375 -10.765625 L 8.625 -10.765625 L 8.625 -5.0625 L 18.203125 -5.0625 L 18.203125 0 L 2.296875 0 L 2.296875 -25.96875 L 18.203125 -25.96875 L 18.203125 -20.90625 Z M 8.625 -20.90625 "/></g></g></g><g fill="#ffffff" fill-opacity="1"><g transform="translate(237.424027, 276.18983)"><g><path d="M 25.53125 0 L 19.203125 0 L 8.625 -16.015625 L 8.625 0 L 2.296875 0 L 2.296875 -25.96875 L 8.625 -25.96875 L 19.203125 -9.875 L 19.203125 -25.96875 L 25.53125 -25.96875 Z M 25.53125 0 "/></g></g></g></svg>