<svg xmlns="http://www.w3.org/2000/svg" xmlns:xlink="http://www.w3.org/1999/xlink" width="500" zoomAndPan="magnify" viewBox="0 0 375 374.999991" height="500" preserveAspectRatio="xMidYMid meet" version="1.0"><defs><g/><clipPath id="6972ac401e"><path d="M 6.808594 6.808594 L 368.191406 6.808594 L 368.191406 368.191406 L 6.808594 368.191406 Z M 6.808594 6.808594 " clip-rule="nonzero"/></clipPath><clipPath id="68211c12c5"><path d="M 187.5 6.808594 C 87.707031 6.808594 6.808594 87.707031 6.808594 187.5 C 6.808594 287.292969 87.707031 368.191406 187.5 368.191406 C 287.292969 368.191406 368.191406 287.292969 368.191406 187.5 C 368.191406 87.707031 287.292969 6.808594 187.5 6.808594 Z M 187.5 6.808594 " clip-rule="nonzero"/></clipPath><clipPath id="965b9f3369"><path d="M 36.132812 36.132812 L 338.847656 36.132812 L 338.847656 338.847656 L 36.132812 338.847656 Z M 36.132812 36.132812 " clip-rule="nonzero"/></clipPath><clipPath id="be98d9d742"><path d="M 187.492188 338.847656 C 271.082031 338.847656 338.847656 271.082031 338.847656 187.492188 C 338.847656 103.898438 271.082031 36.132812 187.492188 36.132812 C 103.898438 36.132812 36.132812 103.898438 36.132812 187.492188 C 36.132812 271.082031 103.898438 338.847656 187.492188 338.847656 Z M 187.492188 338.847656 " clip-rule="nonzero"/></clipPath><clipPath id="280b48a2e1"><path d="M 147 73.953125 L 228 73.953125 L 228 180 L 147 180 Z M 147 73.953125 " clip-rule="nonzero"/></clipPath><clipPath id="a01bc06467"><path d="M 126.28125 199 L 248.53125 199 L 248.53125 223.953125 L 126.28125 223.953125 Z M 126.28125 199 " clip-rule="nonzero"/></clipPath></defs><g clip-path="url(#6972ac401e)"><g clip-path="url(#68211c12c5)"><path fill="#6c9add" d="M 6.808594 6.808594 L 368.191406 6.808594 L 368.191406 368.191406 L 6.808594 368.191406 Z M 6.808594 6.808594 " fill-opacity="1" fill-rule="nonzero"/></g></g><g clip-path="url(#965b9f3369)"><g clip-path="url(#be98d9d742)"><path fill="#00419e" d="M 338.847656 338.847656 L 36.132812 338.847656 L 36.132812 36.132812 L 338.847656 36.132812 Z M 338.847656 338.847656 " fill-opacity="1" fill-rule="nonzero"/></g></g><g clip-path="url(#280b48a2e1)"><path fill="#ffffff" d="M 225.871094 179.417969 C 224.699219 179.417969 223.820312 178.246094 223.820312 177.367188 L 223.820312 114.390625 C 223.820312 94.472656 207.710938 78.070312 187.5 78.070312 C 167.289062 78.070312 151.179688 94.472656 151.179688 114.390625 L 151.179688 177.367188 C 151.179688 178.246094 150.300781 179.417969 149.128906 179.417969 C 147.957031 179.417969 147.078125 178.246094 147.078125 177.367188 L 147.078125 114.390625 C 147.078125 92.128906 165.238281 73.96875 187.5 73.96875 C 209.761719 73.96875 227.921875 92.128906 227.921875 114.390625 L 227.921875 177.367188 C 227.921875 178.246094 227.042969 179.417969 225.871094 179.417969 Z M 225.871094 179.417969 " fill-opacity="1" fill-rule="evenodd"/></g><path fill="#ffffff" d="M 228.507812 191.71875 C 227.628906 191.71875 226.457031 190.839844 226.457031 189.667969 L 226.457031 179.125 L 148.542969 179.125 L 148.542969 189.667969 C 148.542969 190.839844 147.371094 191.71875 146.492188 191.71875 C 145.320312 191.71875 144.441406 190.839844 144.441406 189.667969 L 144.441406 177.074219 C 144.441406 176.195312 145.320312 175.023438 146.492188 175.023438 L 228.507812 175.023438 C 229.679688 175.023438 230.558594 176.195312 230.558594 177.074219 L 230.558594 189.667969 C 230.558594 190.839844 229.679688 191.71875 228.507812 191.71875 Z M 228.507812 191.71875 " fill-opacity="1" fill-rule="evenodd"/><path fill="#ffffff" d="M 234.660156 204.023438 C 233.78125 204.023438 232.902344 203.144531 232.902344 201.972656 L 232.902344 191.71875 L 142.390625 191.71875 L 142.390625 201.972656 C 142.390625 203.144531 141.21875 204.023438 140.339844 204.023438 C 139.167969 204.023438 138.289062 203.144531 138.289062 201.972656 L 138.289062 189.667969 C 138.289062 188.496094 139.167969 187.617188 140.339844 187.617188 L 234.660156 187.617188 C 235.832031 187.617188 236.710938 188.496094 236.710938 189.667969 L 236.710938 201.972656 C 236.710938 203.144531 235.832031 204.023438 234.660156 204.023438 Z M 234.660156 204.023438 " fill-opacity="1" fill-rule="evenodd"/><g clip-path="url(#a01bc06467)"><path fill="#ffffff" d="M 246.667969 223.941406 L 128.332031 223.941406 C 127.160156 223.941406 126.28125 223.0625 126.28125 221.890625 L 126.28125 211.929688 C 126.28125 205.488281 131.554688 199.921875 138.289062 199.921875 L 236.710938 199.921875 C 243.445312 199.921875 248.71875 205.488281 248.71875 211.929688 L 248.71875 221.890625 C 248.71875 223.0625 247.839844 223.941406 246.667969 223.941406 Z M 130.382812 219.839844 L 244.617188 219.839844 L 244.617188 211.929688 C 244.617188 207.535156 241.101562 204.023438 236.710938 204.023438 L 138.289062 204.023438 C 133.898438 204.023438 130.382812 207.535156 130.382812 211.929688 Z M 130.382812 219.839844 " fill-opacity="1" fill-rule="evenodd"/></g><path fill="#ffffff" d="M 191.601562 129.621094 L 183.398438 129.621094 C 182.226562 129.621094 181.347656 128.742188 181.347656 127.570312 L 181.347656 114.390625 L 170.804688 114.390625 C 169.632812 114.390625 168.753906 113.511719 168.753906 112.339844 L 168.753906 103.84375 C 168.753906 102.675781 169.632812 101.796875 170.804688 101.796875 L 181.347656 101.796875 L 181.347656 94.472656 C 181.347656 93.300781 182.226562 92.421875 183.398438 92.421875 L 191.601562 92.421875 C 192.773438 92.421875 193.652344 93.300781 193.652344 94.472656 L 193.652344 101.796875 L 204.195312 101.796875 C 205.367188 101.796875 206.246094 102.675781 206.246094 103.84375 L 206.246094 112.339844 C 206.246094 113.511719 205.367188 114.390625 204.195312 114.390625 L 193.652344 114.390625 L 193.652344 127.570312 C 193.652344 128.742188 192.773438 129.621094 191.601562 129.621094 Z M 185.449219 125.519531 L 189.550781 125.519531 L 189.550781 112.339844 C 189.550781 111.167969 190.722656 110.289062 191.601562 110.289062 L 202.144531 110.289062 L 202.144531 105.894531 L 191.601562 105.894531 C 190.722656 105.894531 189.550781 105.015625 189.550781 103.84375 L 189.550781 96.523438 L 185.449219 96.523438 L 185.449219 103.84375 C 185.449219 105.015625 184.277344 105.894531 183.398438 105.894531 L 172.855469 105.894531 L 172.855469 110.289062 L 183.398438 110.289062 C 184.277344 110.289062 185.449219 111.167969 185.449219 112.339844 Z M 185.449219 125.519531 " fill-opacity="1" fill-rule="evenodd"/><g fill="#000000" fill-opacity="0.9412"><g transform="translate(61.618418, 262.741872)"><g><path d="M 0.96875 -10.328125 C 0.96875 -12.359375 1.40625 -14.171875 2.28125 -15.765625 C 3.164062 -17.359375 4.394531 -18.597656 5.96875 -19.484375 C 7.539062 -20.378906 9.328125 -20.828125 11.328125 -20.828125 C 13.773438 -20.828125 15.867188 -20.179688 17.609375 -18.890625 C 19.347656 -17.597656 20.507812 -15.835938 21.09375 -13.609375 L 15.578125 -13.609375 C 15.171875 -14.472656 14.585938 -15.128906 13.828125 -15.578125 C 13.078125 -16.023438 12.222656 -16.25 11.265625 -16.25 C 9.722656 -16.25 8.472656 -15.710938 7.515625 -14.640625 C 6.554688 -13.566406 6.078125 -12.128906 6.078125 -10.328125 C 6.078125 -8.523438 6.554688 -7.085938 7.515625 -6.015625 C 8.472656 -4.941406 9.722656 -4.40625 11.265625 -4.40625 C 12.222656 -4.40625 13.078125 -4.628906 13.828125 -5.078125 C 14.585938 -5.523438 15.171875 -6.179688 15.578125 -7.046875 L 21.09375 -7.046875 C 20.507812 -4.816406 19.347656 -3.0625 17.609375 -1.78125 C 15.867188 -0.5 13.773438 0.140625 11.328125 0.140625 C 9.328125 0.140625 7.539062 -0.300781 5.96875 -1.1875 C 4.394531 -2.082031 3.164062 -3.320312 2.28125 -4.90625 C 1.40625 -6.488281 0.96875 -8.296875 0.96875 -10.328125 Z M 0.96875 -10.328125 "/></g></g></g><g fill="#000000" fill-opacity="0.9412"><g transform="translate(83.969483, 262.741872)"><g><path d="M 11.5625 0.203125 C 9.625 0.203125 7.847656 -0.242188 6.234375 -1.140625 C 4.617188 -2.046875 3.335938 -3.304688 2.390625 -4.921875 C 1.441406 -6.535156 0.96875 -8.347656 0.96875 -10.359375 C 0.96875 -12.367188 1.441406 -14.175781 2.390625 -15.78125 C 3.335938 -17.382812 4.617188 -18.632812 6.234375 -19.53125 C 7.847656 -20.4375 9.625 -20.890625 11.5625 -20.890625 C 13.5 -20.890625 15.273438 -20.4375 16.890625 -19.53125 C 18.503906 -18.632812 19.773438 -17.382812 20.703125 -15.78125 C 21.628906 -14.175781 22.09375 -12.367188 22.09375 -10.359375 C 22.09375 -8.347656 21.625 -6.535156 20.6875 -4.921875 C 19.75 -3.304688 18.476562 -2.046875 16.875 -1.140625 C 15.269531 -0.242188 13.5 0.203125 11.5625 0.203125 Z M 11.5625 -4.375 C 13.207031 -4.375 14.519531 -4.921875 15.5 -6.015625 C 16.488281 -7.109375 16.984375 -8.554688 16.984375 -10.359375 C 16.984375 -12.179688 16.488281 -13.632812 15.5 -14.71875 C 14.519531 -15.800781 13.207031 -16.34375 11.5625 -16.34375 C 9.894531 -16.34375 8.566406 -15.800781 7.578125 -14.71875 C 6.597656 -13.644531 6.109375 -12.191406 6.109375 -10.359375 C 6.109375 -8.535156 6.597656 -7.082031 7.578125 -6 C 8.566406 -4.914062 9.894531 -4.375 11.5625 -4.375 Z M 11.5625 -4.375 "/></g></g></g><g fill="#000000" fill-opacity="0.9412"><g transform="translate(107.024509, 262.741872)"><g><path d="M 20.25 0 L 15.234375 0 L 6.84375 -12.703125 L 6.84375 0 L 1.8125 0 L 1.8125 -20.59375 L 6.84375 -20.59375 L 15.234375 -7.828125 L 15.234375 -20.59375 L 20.25 -20.59375 Z M 20.25 0 "/></g></g></g><g fill="#000000" fill-opacity="0.9412"><g transform="translate(129.08225, 262.741872)"><g><path d="M 9.265625 0.203125 C 7.765625 0.203125 6.414062 -0.0390625 5.21875 -0.53125 C 4.03125 -1.019531 3.078125 -1.742188 2.359375 -2.703125 C 1.648438 -3.660156 1.273438 -4.8125 1.234375 -6.15625 L 6.578125 -6.15625 C 6.648438 -5.394531 6.910156 -4.8125 7.359375 -4.40625 C 7.816406 -4.007812 8.40625 -3.8125 9.125 -3.8125 C 9.863281 -3.8125 10.445312 -3.984375 10.875 -4.328125 C 11.3125 -4.671875 11.53125 -5.144531 11.53125 -5.75 C 11.53125 -6.257812 11.359375 -6.679688 11.015625 -7.015625 C 10.671875 -7.347656 10.25 -7.617188 9.75 -7.828125 C 9.257812 -8.046875 8.550781 -8.289062 7.625 -8.5625 C 6.300781 -8.976562 5.21875 -9.390625 4.375 -9.796875 C 3.53125 -10.210938 2.804688 -10.820312 2.203125 -11.625 C 1.597656 -12.425781 1.296875 -13.472656 1.296875 -14.765625 C 1.296875 -16.679688 1.988281 -18.179688 3.375 -19.265625 C 4.757812 -20.347656 6.566406 -20.890625 8.796875 -20.890625 C 11.066406 -20.890625 12.894531 -20.347656 14.28125 -19.265625 C 15.675781 -18.179688 16.421875 -16.671875 16.515625 -14.734375 L 11.09375 -14.734375 C 11.050781 -15.398438 10.804688 -15.921875 10.359375 -16.296875 C 9.910156 -16.679688 9.332031 -16.875 8.625 -16.875 C 8.019531 -16.875 7.53125 -16.710938 7.15625 -16.390625 C 6.789062 -16.066406 6.609375 -15.601562 6.609375 -15 C 6.609375 -14.332031 6.921875 -13.8125 7.546875 -13.4375 C 8.171875 -13.0625 9.144531 -12.660156 10.46875 -12.234375 C 11.800781 -11.785156 12.882812 -11.351562 13.71875 -10.9375 C 14.550781 -10.53125 15.269531 -9.9375 15.875 -9.15625 C 16.476562 -8.375 16.78125 -7.367188 16.78125 -6.140625 C 16.78125 -4.960938 16.484375 -3.894531 15.890625 -2.9375 C 15.296875 -1.976562 14.429688 -1.210938 13.296875 -0.640625 C 12.160156 -0.078125 10.816406 0.203125 9.265625 0.203125 Z M 9.265625 0.203125 "/></g></g></g><g fill="#000000" fill-opacity="0.9412"><g transform="translate(147.121491, 262.741872)"><g><path d="M 6.84375 -16.578125 L 6.84375 -12.40625 L 13.5625 -12.40625 L 13.5625 -8.53125 L 6.84375 -8.53125 L 6.84375 -4.015625 L 14.4375 -4.015625 L 14.4375 0 L 1.8125 0 L 1.8125 -20.59375 L 14.4375 -20.59375 L 14.4375 -16.578125 Z M 6.84375 -16.578125 "/></g></g></g><g fill="#000000" fill-opacity="0.9412"><g transform="translate(162.990153, 262.741872)"><g><path d="M 0.96875 -10.328125 C 0.96875 -12.359375 1.40625 -14.171875 2.28125 -15.765625 C 3.164062 -17.359375 4.394531 -18.597656 5.96875 -19.484375 C 7.539062 -20.378906 9.328125 -20.828125 11.328125 -20.828125 C 13.773438 -20.828125 15.867188 -20.179688 17.609375 -18.890625 C 19.347656 -17.597656 20.507812 -15.835938 21.09375 -13.609375 L 15.578125 -13.609375 C 15.171875 -14.472656 14.585938 -15.128906 13.828125 -15.578125 C 13.078125 -16.023438 12.222656 -16.25 11.265625 -16.25 C 9.722656 -16.25 8.472656 -15.710938 7.515625 -14.640625 C 6.554688 -13.566406 6.078125 -12.128906 6.078125 -10.328125 C 6.078125 -8.523438 6.554688 -7.085938 7.515625 -6.015625 C 8.472656 -4.941406 9.722656 -4.40625 11.265625 -4.40625 C 12.222656 -4.40625 13.078125 -4.628906 13.828125 -5.078125 C 14.585938 -5.523438 15.171875 -6.179688 15.578125 -7.046875 L 21.09375 -7.046875 C 20.507812 -4.816406 19.347656 -3.0625 17.609375 -1.78125 C 15.867188 -0.5 13.773438 0.140625 11.328125 0.140625 C 9.328125 0.140625 7.539062 -0.300781 5.96875 -1.1875 C 4.394531 -2.082031 3.164062 -3.320312 2.28125 -4.90625 C 1.40625 -6.488281 0.96875 -8.296875 0.96875 -10.328125 Z M 0.96875 -10.328125 "/></g></g></g><g fill="#000000" fill-opacity="0.9412"><g transform="translate(185.341218, 262.741872)"><g><path d="M 6.75 -20.59375 L 6.75 -8.28125 C 6.75 -7.039062 7.050781 -6.085938 7.65625 -5.421875 C 8.257812 -4.765625 9.148438 -4.4375 10.328125 -4.4375 C 11.503906 -4.4375 12.40625 -4.765625 13.03125 -5.421875 C 13.65625 -6.085938 13.96875 -7.039062 13.96875 -8.28125 L 13.96875 -20.59375 L 18.984375 -20.59375 L 18.984375 -8.296875 C 18.984375 -6.460938 18.59375 -4.910156 17.8125 -3.640625 C 17.03125 -2.367188 15.976562 -1.410156 14.65625 -0.765625 C 13.332031 -0.117188 11.859375 0.203125 10.234375 0.203125 C 8.617188 0.203125 7.171875 -0.113281 5.890625 -0.75 C 4.609375 -1.382812 3.59375 -2.34375 2.84375 -3.625 C 2.101562 -4.90625 1.734375 -6.460938 1.734375 -8.296875 L 1.734375 -20.59375 Z M 6.75 -20.59375 "/></g></g></g><g fill="#000000" fill-opacity="0.9412"><g transform="translate(206.020347, 262.741872)"><g><path d="M 6.84375 -16.578125 L 6.84375 -12.40625 L 13.5625 -12.40625 L 13.5625 -8.53125 L 6.84375 -8.53125 L 6.84375 -4.015625 L 14.4375 -4.015625 L 14.4375 0 L 1.8125 0 L 1.8125 -20.59375 L 14.4375 -20.59375 L 14.4375 -16.578125 Z M 6.84375 -16.578125 "/></g></g></g><g fill="#000000" fill-opacity="0.9412"><g transform="translate(221.88901, 262.741872)"><g><path d="M 20.25 0 L 15.234375 0 L 6.84375 -12.703125 L 6.84375 0 L 1.8125 0 L 1.8125 -20.59375 L 6.84375 -20.59375 L 15.234375 -7.828125 L 15.234375 -20.59375 L 20.25 -20.59375 Z M 20.25 0 "/></g></g></g><g fill="#000000" fill-opacity="0.9412"><g transform="translate(243.946751, 262.741872)"><g><path d="M 0.96875 -10.328125 C 0.96875 -12.359375 1.40625 -14.171875 2.28125 -15.765625 C 3.164062 -17.359375 4.394531 -18.597656 5.96875 -19.484375 C 7.539062 -20.378906 9.328125 -20.828125 11.328125 -20.828125 C 13.773438 -20.828125 15.867188 -20.179688 17.609375 -18.890625 C 19.347656 -17.597656 20.507812 -15.835938 21.09375 -13.609375 L 15.578125 -13.609375 C 15.171875 -14.472656 14.585938 -15.128906 13.828125 -15.578125 C 13.078125 -16.023438 12.222656 -16.25 11.265625 -16.25 C 9.722656 -16.25 8.472656 -15.710938 7.515625 -14.640625 C 6.554688 -13.566406 6.078125 -12.128906 6.078125 -10.328125 C 6.078125 -8.523438 6.554688 -7.085938 7.515625 -6.015625 C 8.472656 -4.941406 9.722656 -4.40625 11.265625 -4.40625 C 12.222656 -4.40625 13.078125 -4.628906 13.828125 -5.078125 C 14.585938 -5.523438 15.171875 -6.179688 15.578125 -7.046875 L 21.09375 -7.046875 C 20.507812 -4.816406 19.347656 -3.0625 17.609375 -1.78125 C 15.867188 -0.5 13.773438 0.140625 11.328125 0.140625 C 9.328125 0.140625 7.539062 -0.300781 5.96875 -1.1875 C 4.394531 -2.082031 3.164062 -3.320312 2.28125 -4.90625 C 1.40625 -6.488281 0.96875 -8.296875 0.96875 -10.328125 Z M 0.96875 -10.328125 "/></g></g></g><g fill="#000000" fill-opacity="0.9412"><g transform="translate(266.297816, 262.741872)"><g><path d="M 6.84375 -20.59375 L 6.84375 0 L 1.8125 0 L 1.8125 -20.59375 Z M 6.84375 -20.59375 "/></g></g></g><g fill="#000000" fill-opacity="0.9412"><g transform="translate(274.950785, 262.741872)"><g><path d="M 14.640625 -3.640625 L 6.953125 -3.640625 L 5.71875 0 L 0.46875 0 L 7.921875 -20.59375 L 13.734375 -20.59375 L 21.1875 0 L 15.875 0 Z M 13.34375 -7.515625 L 10.796875 -15.046875 L 8.28125 -7.515625 Z M 13.34375 -7.515625 "/></g></g></g><g fill="#000000" fill-opacity="0.9412"><g transform="translate(296.568535, 262.741872)"><g><path d="M 9.265625 0.203125 C 7.765625 0.203125 6.414062 -0.0390625 5.21875 -0.53125 C 4.03125 -1.019531 3.078125 -1.742188 2.359375 -2.703125 C 1.648438 -3.660156 1.273438 -4.8125 1.234375 -6.15625 L 6.578125 -6.15625 C 6.648438 -5.394531 6.910156 -4.8125 7.359375 -4.40625 C 7.816406 -4.007812 8.40625 -3.8125 9.125 -3.8125 C 9.863281 -3.8125 10.445312 -3.984375 10.875 -4.328125 C 11.3125 -4.671875 11.53125 -5.144531 11.53125 -5.75 C 11.53125 -6.257812 11.359375 -6.679688 11.015625 -7.015625 C 10.671875 -7.347656 10.25 -7.617188 9.75 -7.828125 C 9.257812 -8.046875 8.550781 -8.289062 7.625 -8.5625 C 6.300781 -8.976562 5.21875 -9.390625 4.375 -9.796875 C 3.53125 -10.210938 2.804688 -10.820312 2.203125 -11.625 C 1.597656 -12.425781 1.296875 -13.472656 1.296875 -14.765625 C 1.296875 -16.679688 1.988281 -18.179688 3.375 -19.265625 C 4.757812 -20.347656 6.566406 -20.890625 8.796875 -20.890625 C 11.066406 -20.890625 12.894531 -20.347656 14.28125 -19.265625 C 15.675781 -18.179688 16.421875 -16.671875 16.515625 -14.734375 L 11.09375 -14.734375 C 11.050781 -15.398438 10.804688 -15.921875 10.359375 -16.296875 C 9.910156 -16.679688 9.332031 -16.875 8.625 -16.875 C 8.019531 -16.875 7.53125 -16.710938 7.15625 -16.390625 C 6.789062 -16.066406 6.609375 -15.601562 6.609375 -15 C 6.609375 -14.332031 6.921875 -13.8125 7.546875 -13.4375 C 8.171875 -13.0625 9.144531 -12.660156 10.46875 -12.234375 C 11.800781 -11.785156 12.882812 -11.351562 13.71875 -10.9375 C 14.550781 -10.53125 15.269531 -9.9375 15.875 -9.15625 C 16.476562 -8.375 16.78125 -7.367188 16.78125 -6.140625 C 16.78125 -4.960938 16.484375 -3.894531 15.890625 -2.9375 C 15.296875 -1.976562 14.429688 -1.210938 13.296875 -0.640625 C 12.160156 -0.078125 10.816406 0.203125 9.265625 0.203125 Z M 9.265625 0.203125 "/></g></g></g><g fill="#ffffff" fill-opacity="1"><g transform="translate(60.995069, 260.823396)"><g><path d="M 0.96875 -10.328125 C 0.96875 -12.359375 1.40625 -14.171875 2.28125 -15.765625 C 3.164062 -17.359375 4.394531 -18.597656 5.96875 -19.484375 C 7.539062 -20.378906 9.328125 -20.828125 11.328125 -20.828125 C 13.773438 -20.828125 15.867188 -20.179688 17.609375 -18.890625 C 19.347656 -17.597656 20.507812 -15.835938 21.09375 -13.609375 L 15.578125 -13.609375 C 15.171875 -14.472656 14.585938 -15.128906 13.828125 -15.578125 C 13.078125 -16.023438 12.222656 -16.25 11.265625 -16.25 C 9.722656 -16.25 8.472656 -15.710938 7.515625 -14.640625 C 6.554688 -13.566406 6.078125 -12.128906 6.078125 -10.328125 C 6.078125 -8.523438 6.554688 -7.085938 7.515625 -6.015625 C 8.472656 -4.941406 9.722656 -4.40625 11.265625 -4.40625 C 12.222656 -4.40625 13.078125 -4.628906 13.828125 -5.078125 C 14.585938 -5.523438 15.171875 -6.179688 15.578125 -7.046875 L 21.09375 -7.046875 C 20.507812 -4.816406 19.347656 -3.0625 17.609375 -1.78125 C 15.867188 -0.5 13.773438 0.140625 11.328125 0.140625 C 9.328125 0.140625 7.539062 -0.300781 5.96875 -1.1875 C 4.394531 -2.082031 3.164062 -3.320312 2.28125 -4.90625 C 1.40625 -6.488281 0.96875 -8.296875 0.96875 -10.328125 Z M 0.96875 -10.328125 "/></g></g></g><g fill="#ffffff" fill-opacity="1"><g transform="translate(83.346134, 260.823396)"><g><path d="M 11.5625 0.203125 C 9.625 0.203125 7.847656 -0.242188 6.234375 -1.140625 C 4.617188 -2.046875 3.335938 -3.304688 2.390625 -4.921875 C 1.441406 -6.535156 0.96875 -8.347656 0.96875 -10.359375 C 0.96875 -12.367188 1.441406 -14.175781 2.390625 -15.78125 C 3.335938 -17.382812 4.617188 -18.632812 6.234375 -19.53125 C 7.847656 -20.4375 9.625 -20.890625 11.5625 -20.890625 C 13.5 -20.890625 15.273438 -20.4375 16.890625 -19.53125 C 18.503906 -18.632812 19.773438 -17.382812 20.703125 -15.78125 C 21.628906 -14.175781 22.09375 -12.367188 22.09375 -10.359375 C 22.09375 -8.347656 21.625 -6.535156 20.6875 -4.921875 C 19.75 -3.304688 18.476562 -2.046875 16.875 -1.140625 C 15.269531 -0.242188 13.5 0.203125 11.5625 0.203125 Z M 11.5625 -4.375 C 13.207031 -4.375 14.519531 -4.921875 15.5 -6.015625 C 16.488281 -7.109375 16.984375 -8.554688 16.984375 -10.359375 C 16.984375 -12.179688 16.488281 -13.632812 15.5 -14.71875 C 14.519531 -15.800781 13.207031 -16.34375 11.5625 -16.34375 C 9.894531 -16.34375 8.566406 -15.800781 7.578125 -14.71875 C 6.597656 -13.644531 6.109375 -12.191406 6.109375 -10.359375 C 6.109375 -8.535156 6.597656 -7.082031 7.578125 -6 C 8.566406 -4.914062 9.894531 -4.375 11.5625 -4.375 Z M 11.5625 -4.375 "/></g></g></g><g fill="#ffffff" fill-opacity="1"><g transform="translate(106.401159, 260.823396)"><g><path d="M 20.25 0 L 15.234375 0 L 6.84375 -12.703125 L 6.84375 0 L 1.8125 0 L 1.8125 -20.59375 L 6.84375 -20.59375 L 15.234375 -7.828125 L 15.234375 -20.59375 L 20.25 -20.59375 Z M 20.25 0 "/></g></g></g><g fill="#ffffff" fill-opacity="1"><g transform="translate(128.458901, 260.823396)"><g><path d="M 9.265625 0.203125 C 7.765625 0.203125 6.414062 -0.0390625 5.21875 -0.53125 C 4.03125 -1.019531 3.078125 -1.742188 2.359375 -2.703125 C 1.648438 -3.660156 1.273438 -4.8125 1.234375 -6.15625 L 6.578125 -6.15625 C 6.648438 -5.394531 6.910156 -4.8125 7.359375 -4.40625 C 7.816406 -4.007812 8.40625 -3.8125 9.125 -3.8125 C 9.863281 -3.8125 10.445312 -3.984375 10.875 -4.328125 C 11.3125 -4.671875 11.53125 -5.144531 11.53125 -5.75 C 11.53125 -6.257812 11.359375 -6.679688 11.015625 -7.015625 C 10.671875 -7.347656 10.25 -7.617188 9.75 -7.828125 C 9.257812 -8.046875 8.550781 -8.289062 7.625 -8.5625 C 6.300781 -8.976562 5.21875 -9.390625 4.375 -9.796875 C 3.53125 -10.210938 2.804688 -10.820312 2.203125 -11.625 C 1.597656 -12.425781 1.296875 -13.472656 1.296875 -14.765625 C 1.296875 -16.679688 1.988281 -18.179688 3.375 -19.265625 C 4.757812 -20.347656 6.566406 -20.890625 8.796875 -20.890625 C 11.066406 -20.890625 12.894531 -20.347656 14.28125 -19.265625 C 15.675781 -18.179688 16.421875 -16.671875 16.515625 -14.734375 L 11.09375 -14.734375 C 11.050781 -15.398438 10.804688 -15.921875 10.359375 -16.296875 C 9.910156 -16.679688 9.332031 -16.875 8.625 -16.875 C 8.019531 -16.875 7.53125 -16.710938 7.15625 -16.390625 C 6.789062 -16.066406 6.609375 -15.601562 6.609375 -15 C 6.609375 -14.332031 6.921875 -13.8125 7.546875 -13.4375 C 8.171875 -13.0625 9.144531 -12.660156 10.46875 -12.234375 C 11.800781 -11.785156 12.882812 -11.351562 13.71875 -10.9375 C 14.550781 -10.53125 15.269531 -9.9375 15.875 -9.15625 C 16.476562 -8.375 16.78125 -7.367188 16.78125 -6.140625 C 16.78125 -4.960938 16.484375 -3.894531 15.890625 -2.9375 C 15.296875 -1.976562 14.429688 -1.210938 13.296875 -0.640625 C 12.160156 -0.078125 10.816406 0.203125 9.265625 0.203125 Z M 9.265625 0.203125 "/></g></g></g><g fill="#ffffff" fill-opacity="1"><g transform="translate(146.498141, 260.823396)"><g><path d="M 6.84375 -16.578125 L 6.84375 -12.40625 L 13.5625 -12.40625 L 13.5625 -8.53125 L 6.84375 -8.53125 L 6.84375 -4.015625 L 14.4375 -4.015625 L 14.4375 0 L 1.8125 0 L 1.8125 -20.59375 L 14.4375 -20.59375 L 14.4375 -16.578125 Z M 6.84375 -16.578125 "/></g></g></g><g fill="#ffffff" fill-opacity="1"><g transform="translate(162.366804, 260.823396)"><g><path d="M 0.96875 -10.328125 C 0.96875 -12.359375 1.40625 -14.171875 2.28125 -15.765625 C 3.164062 -17.359375 4.394531 -18.597656 5.96875 -19.484375 C 7.539062 -20.378906 9.328125 -20.828125 11.328125 -20.828125 C 13.773438 -20.828125 15.867188 -20.179688 17.609375 -18.890625 C 19.347656 -17.597656 20.507812 -15.835938 21.09375 -13.609375 L 15.578125 -13.609375 C 15.171875 -14.472656 14.585938 -15.128906 13.828125 -15.578125 C 13.078125 -16.023438 12.222656 -16.25 11.265625 -16.25 C 9.722656 -16.25 8.472656 -15.710938 7.515625 -14.640625 C 6.554688 -13.566406 6.078125 -12.128906 6.078125 -10.328125 C 6.078125 -8.523438 6.554688 -7.085938 7.515625 -6.015625 C 8.472656 -4.941406 9.722656 -4.40625 11.265625 -4.40625 C 12.222656 -4.40625 13.078125 -4.628906 13.828125 -5.078125 C 14.585938 -5.523438 15.171875 -6.179688 15.578125 -7.046875 L 21.09375 -7.046875 C 20.507812 -4.816406 19.347656 -3.0625 17.609375 -1.78125 C 15.867188 -0.5 13.773438 0.140625 11.328125 0.140625 C 9.328125 0.140625 7.539062 -0.300781 5.96875 -1.1875 C 4.394531 -2.082031 3.164062 -3.320312 2.28125 -4.90625 C 1.40625 -6.488281 0.96875 -8.296875 0.96875 -10.328125 Z M 0.96875 -10.328125 "/></g></g></g><g fill="#ffffff" fill-opacity="1"><g transform="translate(184.717869, 260.823396)"><g><path d="M 6.75 -20.59375 L 6.75 -8.28125 C 6.75 -7.039062 7.050781 -6.085938 7.65625 -5.421875 C 8.257812 -4.765625 9.148438 -4.4375 10.328125 -4.4375 C 11.503906 -4.4375 12.40625 -4.765625 13.03125 -5.421875 C 13.65625 -6.085938 13.96875 -7.039062 13.96875 -8.28125 L 13.96875 -20.59375 L 18.984375 -20.59375 L 18.984375 -8.296875 C 18.984375 -6.460938 18.59375 -4.910156 17.8125 -3.640625 C 17.03125 -2.367188 15.976562 -1.410156 14.65625 -0.765625 C 13.332031 -0.117188 11.859375 0.203125 10.234375 0.203125 C 8.617188 0.203125 7.171875 -0.113281 5.890625 -0.75 C 4.609375 -1.382812 3.59375 -2.34375 2.84375 -3.625 C 2.101562 -4.90625 1.734375 -6.460938 1.734375 -8.296875 L 1.734375 -20.59375 Z M 6.75 -20.59375 "/></g></g></g><g fill="#ffffff" fill-opacity="1"><g transform="translate(205.396998, 260.823396)"><g><path d="M 6.84375 -16.578125 L 6.84375 -12.40625 L 13.5625 -12.40625 L 13.5625 -8.53125 L 6.84375 -8.53125 L 6.84375 -4.015625 L 14.4375 -4.015625 L 14.4375 0 L 1.8125 0 L 1.8125 -20.59375 L 14.4375 -20.59375 L 14.4375 -16.578125 Z M 6.84375 -16.578125 "/></g></g></g><g fill="#ffffff" fill-opacity="1"><g transform="translate(221.26566, 260.823396)"><g><path d="M 20.25 0 L 15.234375 0 L 6.84375 -12.703125 L 6.84375 0 L 1.8125 0 L 1.8125 -20.59375 L 6.84375 -20.59375 L 15.234375 -7.828125 L 15.234375 -20.59375 L 20.25 -20.59375 Z M 20.25 0 "/></g></g></g><g fill="#ffffff" fill-opacity="1"><g transform="translate(243.323402, 260.823396)"><g><path d="M 0.96875 -10.328125 C 0.96875 -12.359375 1.40625 -14.171875 2.28125 -15.765625 C 3.164062 -17.359375 4.394531 -18.597656 5.96875 -19.484375 C 7.539062 -20.378906 9.328125 -20.828125 11.328125 -20.828125 C 13.773438 -20.828125 15.867188 -20.179688 17.609375 -18.890625 C 19.347656 -17.597656 20.507812 -15.835938 21.09375 -13.609375 L 15.578125 -13.609375 C 15.171875 -14.472656 14.585938 -15.128906 13.828125 -15.578125 C 13.078125 -16.023438 12.222656 -16.25 11.265625 -16.25 C 9.722656 -16.25 8.472656 -15.710938 7.515625 -14.640625 C 6.554688 -13.566406 6.078125 -12.128906 6.078125 -10.328125 C 6.078125 -8.523438 6.554688 -7.085938 7.515625 -6.015625 C 8.472656 -4.941406 9.722656 -4.40625 11.265625 -4.40625 C 12.222656 -4.40625 13.078125 -4.628906 13.828125 -5.078125 C 14.585938 -5.523438 15.171875 -6.179688 15.578125 -7.046875 L 21.09375 -7.046875 C 20.507812 -4.816406 19.347656 -3.0625 17.609375 -1.78125 C 15.867188 -0.5 13.773438 0.140625 11.328125 0.140625 C 9.328125 0.140625 7.539062 -0.300781 5.96875 -1.1875 C 4.394531 -2.082031 3.164062 -3.320312 2.28125 -4.90625 C 1.40625 -6.488281 0.96875 -8.296875 0.96875 -10.328125 Z M 0.96875 -10.328125 "/></g></g></g><g fill="#ffffff" fill-opacity="1"><g transform="translate(265.674467, 260.823396)"><g><path d="M 6.84375 -20.59375 L 6.84375 0 L 1.8125 0 L 1.8125 -20.59375 Z M 6.84375 -20.59375 "/></g></g></g><g fill="#ffffff" fill-opacity="1"><g transform="translate(274.327436, 260.823396)"><g><path d="M 14.640625 -3.640625 L 6.953125 -3.640625 L 5.71875 0 L 0.46875 0 L 7.921875 -20.59375 L 13.734375 -20.59375 L 21.1875 0 L 15.875 0 Z M 13.34375 -7.515625 L 10.796875 -15.046875 L 8.28125 -7.515625 Z M 13.34375 -7.515625 "/></g></g></g><g fill="#ffffff" fill-opacity="1"><g transform="translate(295.945186, 260.823396)"><g><path d="M 9.265625 0.203125 C 7.765625 0.203125 6.414062 -0.0390625 5.21875 -0.53125 C 4.03125 -1.019531 3.078125 -1.742188 2.359375 -2.703125 C 1.648438 -3.660156 1.273438 -4.8125 1.234375 -6.15625 L 6.578125 -6.15625 C 6.648438 -5.394531 6.910156 -4.8125 7.359375 -4.40625 C 7.816406 -4.007812 8.40625 -3.8125 9.125 -3.8125 C 9.863281 -3.8125 10.445312 -3.984375 10.875 -4.328125 C 11.3125 -4.671875 11.53125 -5.144531 11.53125 -5.75 C 11.53125 -6.257812 11.359375 -6.679688 11.015625 -7.015625 C 10.671875 -7.347656 10.25 -7.617188 9.75 -7.828125 C 9.257812 -8.046875 8.550781 -8.289062 7.625 -8.5625 C 6.300781 -8.976562 5.21875 -9.390625 4.375 -9.796875 C 3.53125 -10.210938 2.804688 -10.820312 2.203125 -11.625 C 1.597656 -12.425781 1.296875 -13.472656 1.296875 -14.765625 C 1.296875 -16.679688 1.988281 -18.179688 3.375 -19.265625 C 4.757812 -20.347656 6.566406 -20.890625 8.796875 -20.890625 C 11.066406 -20.890625 12.894531 -20.347656 14.28125 -19.265625 C 15.675781 -18.179688 16.421875 -16.671875 16.515625 -14.734375 L 11.09375 -14.734375 C 11.050781 -15.398438 10.804688 -15.921875 10.359375 -16.296875 C 9.910156 -16.679688 9.332031 -16.875 8.625 -16.875 C 8.019531 -16.875 7.53125 -16.710938 7.15625 -16.390625 C 6.789062 -16.066406 6.609375 -15.601562 6.609375 -15 C 6.609375 -14.332031 6.921875 -13.8125 7.546875 -13.4375 C 8.171875 -13.0625 9.144531 -12.660156 10.46875 -12.234375 C 11.800781 -11.785156 12.882812 -11.351562 13.71875 -10.9375 C 14.550781 -10.53125 15.269531 -9.9375 15.875 -9.15625 C 16.476562 -8.375 16.78125 -7.367188 16.78125 -6.140625 C 16.78125 -4.960938 16.484375 -3.894531 15.890625 -2.9375 C 15.296875 -1.976562 14.429688 -1.210938 13.296875 -0.640625 C 12.160156 -0.078125 10.816406 0.203125 9.265625 0.203125 Z M 9.265625 0.203125 "/></g></g></g><g fill="#000000" fill-opacity="0.9412"><g transform="translate(314.614499, 262.741872)"><g/></g></g><g fill="#ffffff" fill-opacity="1"><g transform="translate(313.99115, 260.823396)"><g/></g></g></svg>