<svg xmlns="http://www.w3.org/2000/svg" xmlns:xlink="http://www.w3.org/1999/xlink" width="500" zoomAndPan="magnify" viewBox="0 0 375 374.999991" height="500" preserveAspectRatio="xMidYMid meet" version="1.0"><defs><g/><clipPath id="52d6add970"><path d="M 6.808594 6.808594 L 368.191406 6.808594 L 368.191406 368.191406 L 6.808594 368.191406 Z M 6.808594 6.808594 " clip-rule="nonzero"/></clipPath><clipPath id="6436097e69"><path d="M 187.5 6.808594 C 87.707031 6.808594 6.808594 87.707031 6.808594 187.5 C 6.808594 287.292969 87.707031 368.191406 187.5 368.191406 C 287.292969 368.191406 368.191406 287.292969 368.191406 187.5 C 368.191406 87.707031 287.292969 6.808594 187.5 6.808594 Z M 187.5 6.808594 " clip-rule="nonzero"/></clipPath><clipPath id="038de0abe5"><path d="M 36.132812 36.132812 L 338.847656 36.132812 L 338.847656 338.847656 L 36.132812 338.847656 Z M 36.132812 36.132812 " clip-rule="nonzero"/></clipPath><clipPath id="b87bcae066"><path d="M 187.492188 338.847656 C 271.082031 338.847656 338.847656 271.082031 338.847656 187.492188 C 338.847656 103.898438 271.082031 36.132812 187.492188 36.132812 C 103.898438 36.132812 36.132812 103.898438 36.132812 187.492188 C 36.132812 271.082031 103.898438 338.847656 187.492188 338.847656 Z M 187.492188 338.847656 " clip-rule="nonzero"/></clipPath><clipPath id="2cbcb2bed8"><path d="M 90.457031 144 L 284.707031 144 L 284.707031 212.5 L 90.457031 212.5 Z M 90.457031 144 " clip-rule="nonzero"/></clipPath></defs><g clip-path="url(#52d6add970)"><g clip-path="url(#6436097e69)"><path fill="#6c9add" d="M 6.808594 6.808594 L 368.191406 6.808594 L 368.191406 368.191406 L 6.808594 368.191406 Z M 6.808594 6.808594 " fill-opacity="1" fill-rule="nonzero"/></g></g><g clip-path="url(#038de0abe5)"><g clip-path="url(#b87bcae066)"><path fill="#00419e" d="M 338.847656 338.847656 L 36.132812 338.847656 L 36.132812 36.132812 L 338.847656 36.132812 Z M 338.847656 338.847656 " fill-opacity="1" fill-rule="nonzero"/></g></g><g clip-path="url(#2cbcb2bed8)"><path fill="#ffffff" d="M 274.003906 183.386719 C 264.101562 183.660156 254.1875 183.402344 244.28125 183.515625 C 242.347656 183.535156 241.226562 182.910156 240.179688 181.339844 C 234.652344 173.003906 228.992188 164.753906 223.421875 156.445312 C 219.335938 150.339844 214.210938 146.328125 207.667969 144.808594 C 207.054688 144.664062 206.417969 144.851562 205.933594 145.261719 C 200.875 149.535156 194.425781 152.09375 187.402344 152.09375 C 180.378906 152.09375 173.917969 149.53125 168.859375 145.25 C 168.378906 144.84375 167.742188 144.65625 167.132812 144.792969 C 161.210938 146.140625 156.496094 149.667969 152.773438 155.097656 C 146.847656 163.746094 140.890625 172.371094 135.117188 181.121094 C 133.875 182.996094 132.566406 183.542969 130.429688 183.523438 C 120.527344 183.410156 110.613281 183.457031 100.707031 183.488281 C 94.367188 183.5 90.660156 186.925781 90.585938 192.714844 C 90.515625 198.421875 94.300781 202.261719 100.46875 202.308594 C 112.679688 202.414062 124.878906 202.355469 137.078125 202.335938 C 141.46875 202.324219 144.917969 200.671875 147.441406 196.894531 C 151.117188 191.40625 154.957031 186.027344 159.132812 180.074219 C 159.777344 179.160156 161.222656 179.609375 161.222656 180.734375 L 161.222656 207.867188 C 161.222656 210.339844 163.230469 212.34375 165.699219 212.34375 L 208.800781 212.34375 C 211.273438 212.34375 213.277344 210.339844 213.277344 207.867188 L 213.277344 181.449219 C 213.277344 180.351562 214.660156 179.882812 215.328125 180.746094 C 218.472656 184.769531 224.371094 192.449219 227 196.507812 C 229.570312 200.464844 233.027344 202.234375 237.578125 202.234375 C 249.78125 202.238281 261.980469 202.320312 274.191406 202.203125 C 280.480469 202.140625 284.609375 198.148438 284.402344 192.464844 C 284.199219 186.875 279.980469 183.222656 274.003906 183.386719 " fill-opacity="1" fill-rule="nonzero"/></g><path fill="#ffffff" d="M 96.734375 147.320312 C 99.191406 147.785156 100.972656 146.714844 101.613281 144.175781 C 101.820312 143.359375 101.8125 142.496094 101.996094 141.675781 C 102.613281 138.976562 104.109375 137.054688 106.996094 136.675781 C 109.714844 136.316406 112.453125 137.644531 113.378906 139.6875 C 114.617188 142.433594 114.421875 144.863281 112.371094 147.011719 C 111.214844 148.230469 109.886719 149.324219 108.5 150.273438 C 104.722656 152.847656 104.308594 156.597656 104.371094 160.757812 C 107.027344 160.757812 109.417969 160.757812 111.996094 160.757812 C 111.746094 157.144531 113.617188 154.800781 116.378906 152.953125 C 117.175781 152.417969 117.894531 151.757812 118.613281 151.121094 C 126.035156 144.59375 123.917969 133.1875 114.578125 129.945312 C 111.664062 128.9375 108.671875 128.8125 105.640625 129.046875 C 98.402344 129.613281 93.367188 135.679688 93.289062 142.898438 C 93.269531 145.25 94.441406 146.890625 96.734375 147.320312 " fill-opacity="1" fill-rule="nonzero"/><path fill="#ffffff" d="M 108.316406 163.9375 C 105.515625 163.9375 103.238281 166.207031 103.238281 169.015625 C 103.238281 171.816406 105.515625 174.09375 108.316406 174.09375 C 111.125 174.09375 113.394531 171.816406 113.394531 169.015625 C 113.394531 166.207031 111.125 163.9375 108.316406 163.9375 " fill-opacity="1" fill-rule="nonzero"/><path fill="#ffffff" d="M 251.558594 158.777344 C 252.609375 159.742188 253.449219 160.914062 253.996094 162.222656 C 253.25 162.261719 252.59375 162.867188 252.464844 163.710938 C 252.367188 164.367188 252.609375 164.996094 253.046875 165.390625 C 252.75 165.660156 252.53125 166.03125 252.464844 166.480469 C 252.367188 167.136719 252.609375 167.773438 253.046875 168.164062 C 252.75 168.429688 252.53125 168.808594 252.464844 169.253906 C 252.316406 170.226562 252.914062 171.148438 253.804688 171.3125 L 255.703125 171.660156 L 255.703125 171.828125 C 255.703125 173.941406 257.414062 175.652344 259.527344 175.652344 C 261.21875 175.652344 262.652344 174.550781 263.15625 173.027344 L 264.710938 173.316406 C 265.601562 173.476562 266.445312 172.820312 266.589844 171.847656 C 266.691406 171.191406 266.449219 170.554688 266.007812 170.164062 C 266.308594 169.898438 266.519531 169.519531 266.589844 169.074219 C 266.691406 168.417969 266.449219 167.785156 266.007812 167.394531 C 266.308594 167.128906 266.519531 166.75 266.589844 166.304688 C 266.742188 165.332031 266.140625 164.40625 265.253906 164.246094 L 264.878906 164.179688 C 264.945312 163.597656 265.035156 163.078125 265.15625 162.746094 C 265.351562 162.222656 265.585938 161.714844 265.84375 161.226562 C 266.414062 160.148438 267.148438 159.164062 268.003906 158.277344 C 270.152344 156.0625 271.480469 153.007812 271.480469 149.632812 C 271.480469 142.859375 266.128906 137.367188 259.527344 137.367188 C 252.925781 137.367188 247.574219 142.859375 247.574219 149.632812 C 247.574219 153.265625 249.113281 156.53125 251.558594 158.777344 " fill-opacity="1" fill-rule="nonzero"/><path fill="#ffffff" d="M 238.828125 150.84375 L 242.664062 150.84375 C 243.40625 150.84375 244.011719 150.242188 244.011719 149.496094 C 244.011719 148.753906 243.40625 148.148438 242.664062 148.148438 L 238.828125 148.148438 C 238.085938 148.148438 237.484375 148.753906 237.484375 149.496094 C 237.484375 150.242188 238.085938 150.84375 238.828125 150.84375 " fill-opacity="1" fill-rule="nonzero"/><path fill="#ffffff" d="M 275.175781 149.496094 C 275.175781 150.242188 275.78125 150.84375 276.523438 150.84375 L 280.359375 150.84375 C 281.101562 150.84375 281.707031 150.242188 281.707031 149.496094 C 281.707031 148.753906 281.101562 148.148438 280.359375 148.148438 L 276.523438 148.148438 C 275.78125 148.148438 275.175781 148.753906 275.175781 149.496094 " fill-opacity="1" fill-rule="nonzero"/><path fill="#ffffff" d="M 259.59375 133.914062 C 260.335938 133.914062 260.941406 133.3125 260.941406 132.566406 L 260.941406 128.734375 C 260.941406 127.988281 260.335938 127.386719 259.59375 127.386719 C 258.851562 127.386719 258.25 127.988281 258.25 128.734375 L 258.25 132.566406 C 258.25 133.3125 258.851562 133.914062 259.59375 133.914062 " fill-opacity="1" fill-rule="nonzero"/><path fill="#ffffff" d="M 272.519531 138.476562 L 275.230469 135.765625 C 275.757812 135.242188 275.757812 134.390625 275.230469 133.863281 C 274.703125 133.339844 273.847656 133.339844 273.328125 133.863281 L 270.613281 136.574219 C 270.085938 137.097656 270.085938 137.953125 270.613281 138.476562 C 271.136719 139.007812 271.992188 139.007812 272.519531 138.476562 " fill-opacity="1" fill-rule="nonzero"/><path fill="#ffffff" d="M 246.671875 138.476562 C 247.195312 139.007812 248.050781 139.007812 248.574219 138.476562 C 249.101562 137.953125 249.101562 137.097656 248.574219 136.574219 L 245.863281 133.863281 C 245.339844 133.339844 244.488281 133.339844 243.960938 133.863281 C 243.429688 134.390625 243.429688 135.242188 243.960938 135.765625 L 246.671875 138.476562 " fill-opacity="1" fill-rule="nonzero"/><path fill="#ffffff" d="M 187.402344 142.839844 C 198.546875 142.839844 207.578125 133.296875 207.578125 121.53125 C 207.578125 109.765625 198.546875 100.226562 187.402344 100.226562 C 176.261719 100.226562 167.234375 109.765625 167.234375 121.53125 C 167.234375 133.296875 176.261719 142.839844 187.402344 142.839844 " fill-opacity="1" fill-rule="nonzero"/><g fill="#000000" fill-opacity="0.9412"><g transform="translate(104.365322, 269.596232)"><g><path d="M 1.390625 -14.90625 C 1.390625 -17.84375 2.023438 -20.457031 3.296875 -22.75 C 4.566406 -25.050781 6.335938 -26.84375 8.609375 -28.125 C 10.890625 -29.414062 13.46875 -30.0625 16.34375 -30.0625 C 19.875 -30.0625 22.894531 -29.128906 25.40625 -27.265625 C 27.914062 -25.398438 29.59375 -22.859375 30.4375 -19.640625 L 22.484375 -19.640625 C 21.890625 -20.890625 21.046875 -21.835938 19.953125 -22.484375 C 18.867188 -23.128906 17.640625 -23.453125 16.265625 -23.453125 C 14.035156 -23.453125 12.226562 -22.675781 10.84375 -21.125 C 9.457031 -19.570312 8.765625 -17.5 8.765625 -14.90625 C 8.765625 -12.3125 9.457031 -10.238281 10.84375 -8.6875 C 12.226562 -7.132812 14.035156 -6.359375 16.265625 -6.359375 C 17.640625 -6.359375 18.867188 -6.679688 19.953125 -7.328125 C 21.046875 -7.972656 21.890625 -8.914062 22.484375 -10.15625 L 30.4375 -10.15625 C 29.59375 -6.9375 27.914062 -4.398438 25.40625 -2.546875 C 22.894531 -0.703125 19.875 0.21875 16.34375 0.21875 C 13.46875 0.21875 10.890625 -0.421875 8.609375 -1.703125 C 6.335938 -2.992188 4.566406 -4.78125 3.296875 -7.0625 C 2.023438 -9.351562 1.390625 -11.96875 1.390625 -14.90625 Z M 1.390625 -14.90625 "/></g></g></g><g fill="#000000" fill-opacity="0.9412"><g transform="translate(136.621961, 269.596232)"><g><path d="M 21.125 -5.25 L 10.03125 -5.25 L 8.25 0 L 0.671875 0 L 11.4375 -29.71875 L 19.8125 -29.71875 L 30.578125 0 L 22.90625 0 Z M 19.265625 -10.84375 L 15.578125 -21.71875 L 11.9375 -10.84375 Z M 19.265625 -10.84375 "/></g></g></g><g fill="#000000" fill-opacity="0.9412"><g transform="translate(167.820312, 269.596232)"><g><path d="M 9.734375 -29.71875 L 9.734375 -11.9375 C 9.734375 -10.15625 10.171875 -8.785156 11.046875 -7.828125 C 11.921875 -6.867188 13.207031 -6.390625 14.90625 -6.390625 C 16.601562 -6.390625 17.898438 -6.867188 18.796875 -7.828125 C 19.703125 -8.785156 20.15625 -10.15625 20.15625 -11.9375 L 20.15625 -29.71875 L 27.390625 -29.71875 L 27.390625 -11.984375 C 27.390625 -9.328125 26.828125 -7.082031 25.703125 -5.25 C 24.578125 -3.414062 23.0625 -2.03125 21.15625 -1.09375 C 19.25 -0.164062 17.125 0.296875 14.78125 0.296875 C 12.4375 0.296875 10.335938 -0.160156 8.484375 -1.078125 C 6.640625 -1.992188 5.179688 -3.375 4.109375 -5.21875 C 3.035156 -7.070312 2.5 -9.328125 2.5 -11.984375 L 2.5 -29.71875 Z M 9.734375 -29.71875 "/></g></g></g><g fill="#000000" fill-opacity="0.9412"><g transform="translate(197.664049, 269.596232)"><g><path d="M 13.375 0.296875 C 11.207031 0.296875 9.257812 -0.0546875 7.53125 -0.765625 C 5.8125 -1.472656 4.4375 -2.515625 3.40625 -3.890625 C 2.375 -5.273438 1.832031 -6.941406 1.78125 -8.890625 L 9.484375 -8.890625 C 9.597656 -7.785156 9.976562 -6.941406 10.625 -6.359375 C 11.28125 -5.785156 12.128906 -5.5 13.171875 -5.5 C 14.242188 -5.5 15.085938 -5.742188 15.703125 -6.234375 C 16.328125 -6.734375 16.640625 -7.421875 16.640625 -8.296875 C 16.640625 -9.035156 16.390625 -9.644531 15.890625 -10.125 C 15.398438 -10.601562 14.796875 -10.992188 14.078125 -11.296875 C 13.359375 -11.609375 12.335938 -11.960938 11.015625 -12.359375 C 9.085938 -12.953125 7.515625 -13.546875 6.296875 -14.140625 C 5.085938 -14.734375 4.046875 -15.609375 3.171875 -16.765625 C 2.296875 -17.921875 1.859375 -19.429688 1.859375 -21.296875 C 1.859375 -24.066406 2.859375 -26.234375 4.859375 -27.796875 C 6.867188 -29.367188 9.484375 -30.15625 12.703125 -30.15625 C 15.972656 -30.15625 18.609375 -29.367188 20.609375 -27.796875 C 22.617188 -26.234375 23.695312 -24.050781 23.84375 -21.25 L 16 -21.25 C 15.945312 -22.21875 15.59375 -22.972656 14.9375 -23.515625 C 14.289062 -24.066406 13.460938 -24.34375 12.453125 -24.34375 C 11.578125 -24.34375 10.867188 -24.109375 10.328125 -23.640625 C 9.796875 -23.179688 9.53125 -22.515625 9.53125 -21.640625 C 9.53125 -20.679688 9.976562 -19.929688 10.875 -19.390625 C 11.78125 -18.859375 13.191406 -18.28125 15.109375 -17.65625 C 17.035156 -17.007812 18.597656 -16.390625 19.796875 -15.796875 C 20.992188 -15.203125 22.03125 -14.335938 22.90625 -13.203125 C 23.78125 -12.078125 24.21875 -10.625 24.21875 -8.84375 C 24.21875 -7.15625 23.785156 -5.617188 22.921875 -4.234375 C 22.066406 -2.847656 20.816406 -1.742188 19.171875 -0.921875 C 17.535156 -0.109375 15.601562 0.296875 13.375 0.296875 Z M 13.375 0.296875 "/></g></g></g><g fill="#000000" fill-opacity="0.9412"><g transform="translate(223.697943, 269.596232)"><g><path d="M 21.125 -5.25 L 10.03125 -5.25 L 8.25 0 L 0.671875 0 L 11.4375 -29.71875 L 19.8125 -29.71875 L 30.578125 0 L 22.90625 0 Z M 19.265625 -10.84375 L 15.578125 -21.71875 L 11.9375 -10.84375 Z M 19.265625 -10.84375 "/></g></g></g><g fill="#000000" fill-opacity="0.9412"><g transform="translate(254.896287, 269.596232)"><g><path d="M 13.375 0.296875 C 11.207031 0.296875 9.257812 -0.0546875 7.53125 -0.765625 C 5.8125 -1.472656 4.4375 -2.515625 3.40625 -3.890625 C 2.375 -5.273438 1.832031 -6.941406 1.78125 -8.890625 L 9.484375 -8.890625 C 9.597656 -7.785156 9.976562 -6.941406 10.625 -6.359375 C 11.28125 -5.785156 12.128906 -5.5 13.171875 -5.5 C 14.242188 -5.5 15.085938 -5.742188 15.703125 -6.234375 C 16.328125 -6.734375 16.640625 -7.421875 16.640625 -8.296875 C 16.640625 -9.035156 16.390625 -9.644531 15.890625 -10.125 C 15.398438 -10.601562 14.796875 -10.992188 14.078125 -11.296875 C 13.359375 -11.609375 12.335938 -11.960938 11.015625 -12.359375 C 9.085938 -12.953125 7.515625 -13.546875 6.296875 -14.140625 C 5.085938 -14.734375 4.046875 -15.609375 3.171875 -16.765625 C 2.296875 -17.921875 1.859375 -19.429688 1.859375 -21.296875 C 1.859375 -24.066406 2.859375 -26.234375 4.859375 -27.796875 C 6.867188 -29.367188 9.484375 -30.15625 12.703125 -30.15625 C 15.972656 -30.15625 18.609375 -29.367188 20.609375 -27.796875 C 22.617188 -26.234375 23.695312 -24.050781 23.84375 -21.25 L 16 -21.25 C 15.945312 -22.21875 15.59375 -22.972656 14.9375 -23.515625 C 14.289062 -24.066406 13.460938 -24.34375 12.453125 -24.34375 C 11.578125 -24.34375 10.867188 -24.109375 10.328125 -23.640625 C 9.796875 -23.179688 9.53125 -22.515625 9.53125 -21.640625 C 9.53125 -20.679688 9.976562 -19.929688 10.875 -19.390625 C 11.78125 -18.859375 13.191406 -18.28125 15.109375 -17.65625 C 17.035156 -17.007812 18.597656 -16.390625 19.796875 -15.796875 C 20.992188 -15.203125 22.03125 -14.335938 22.90625 -13.203125 C 23.78125 -12.078125 24.21875 -10.625 24.21875 -8.84375 C 24.21875 -7.15625 23.785156 -5.617188 22.921875 -4.234375 C 22.066406 -2.847656 20.816406 -1.742188 19.171875 -0.921875 C 17.535156 -0.109375 15.601562 0.296875 13.375 0.296875 Z M 13.375 0.296875 "/></g></g></g><g fill="#ffffff" fill-opacity="1"><g transform="translate(103.465795, 266.827779)"><g><path d="M 1.390625 -14.90625 C 1.390625 -17.84375 2.023438 -20.457031 3.296875 -22.75 C 4.566406 -25.050781 6.335938 -26.84375 8.609375 -28.125 C 10.890625 -29.414062 13.46875 -30.0625 16.34375 -30.0625 C 19.875 -30.0625 22.894531 -29.128906 25.40625 -27.265625 C 27.914062 -25.398438 29.59375 -22.859375 30.4375 -19.640625 L 22.484375 -19.640625 C 21.890625 -20.890625 21.046875 -21.835938 19.953125 -22.484375 C 18.867188 -23.128906 17.640625 -23.453125 16.265625 -23.453125 C 14.035156 -23.453125 12.226562 -22.675781 10.84375 -21.125 C 9.457031 -19.570312 8.765625 -17.5 8.765625 -14.90625 C 8.765625 -12.3125 9.457031 -10.238281 10.84375 -8.6875 C 12.226562 -7.132812 14.035156 -6.359375 16.265625 -6.359375 C 17.640625 -6.359375 18.867188 -6.679688 19.953125 -7.328125 C 21.046875 -7.972656 21.890625 -8.914062 22.484375 -10.15625 L 30.4375 -10.15625 C 29.59375 -6.9375 27.914062 -4.398438 25.40625 -2.546875 C 22.894531 -0.703125 19.875 0.21875 16.34375 0.21875 C 13.46875 0.21875 10.890625 -0.421875 8.609375 -1.703125 C 6.335938 -2.992188 4.566406 -4.78125 3.296875 -7.0625 C 2.023438 -9.351562 1.390625 -11.96875 1.390625 -14.90625 Z M 1.390625 -14.90625 "/></g></g></g><g fill="#ffffff" fill-opacity="1"><g transform="translate(135.722434, 266.827779)"><g><path d="M 21.125 -5.25 L 10.03125 -5.25 L 8.25 0 L 0.671875 0 L 11.4375 -29.71875 L 19.8125 -29.71875 L 30.578125 0 L 22.90625 0 Z M 19.265625 -10.84375 L 15.578125 -21.71875 L 11.9375 -10.84375 Z M 19.265625 -10.84375 "/></g></g></g><g fill="#ffffff" fill-opacity="1"><g transform="translate(166.920785, 266.827779)"><g><path d="M 9.734375 -29.71875 L 9.734375 -11.9375 C 9.734375 -10.15625 10.171875 -8.785156 11.046875 -7.828125 C 11.921875 -6.867188 13.207031 -6.390625 14.90625 -6.390625 C 16.601562 -6.390625 17.898438 -6.867188 18.796875 -7.828125 C 19.703125 -8.785156 20.15625 -10.15625 20.15625 -11.9375 L 20.15625 -29.71875 L 27.390625 -29.71875 L 27.390625 -11.984375 C 27.390625 -9.328125 26.828125 -7.082031 25.703125 -5.25 C 24.578125 -3.414062 23.0625 -2.03125 21.15625 -1.09375 C 19.25 -0.164062 17.125 0.296875 14.78125 0.296875 C 12.4375 0.296875 10.335938 -0.160156 8.484375 -1.078125 C 6.640625 -1.992188 5.179688 -3.375 4.109375 -5.21875 C 3.035156 -7.070312 2.5 -9.328125 2.5 -11.984375 L 2.5 -29.71875 Z M 9.734375 -29.71875 "/></g></g></g><g fill="#ffffff" fill-opacity="1"><g transform="translate(196.764522, 266.827779)"><g><path d="M 13.375 0.296875 C 11.207031 0.296875 9.257812 -0.0546875 7.53125 -0.765625 C 5.8125 -1.472656 4.4375 -2.515625 3.40625 -3.890625 C 2.375 -5.273438 1.832031 -6.941406 1.78125 -8.890625 L 9.484375 -8.890625 C 9.597656 -7.785156 9.976562 -6.941406 10.625 -6.359375 C 11.28125 -5.785156 12.128906 -5.5 13.171875 -5.5 C 14.242188 -5.5 15.085938 -5.742188 15.703125 -6.234375 C 16.328125 -6.734375 16.640625 -7.421875 16.640625 -8.296875 C 16.640625 -9.035156 16.390625 -9.644531 15.890625 -10.125 C 15.398438 -10.601562 14.796875 -10.992188 14.078125 -11.296875 C 13.359375 -11.609375 12.335938 -11.960938 11.015625 -12.359375 C 9.085938 -12.953125 7.515625 -13.546875 6.296875 -14.140625 C 5.085938 -14.734375 4.046875 -15.609375 3.171875 -16.765625 C 2.296875 -17.921875 1.859375 -19.429688 1.859375 -21.296875 C 1.859375 -24.066406 2.859375 -26.234375 4.859375 -27.796875 C 6.867188 -29.367188 9.484375 -30.15625 12.703125 -30.15625 C 15.972656 -30.15625 18.609375 -29.367188 20.609375 -27.796875 C 22.617188 -26.234375 23.695312 -24.050781 23.84375 -21.25 L 16 -21.25 C 15.945312 -22.21875 15.59375 -22.972656 14.9375 -23.515625 C 14.289062 -24.066406 13.460938 -24.34375 12.453125 -24.34375 C 11.578125 -24.34375 10.867188 -24.109375 10.328125 -23.640625 C 9.796875 -23.179688 9.53125 -22.515625 9.53125 -21.640625 C 9.53125 -20.679688 9.976562 -19.929688 10.875 -19.390625 C 11.78125 -18.859375 13.191406 -18.28125 15.109375 -17.65625 C 17.035156 -17.007812 18.597656 -16.390625 19.796875 -15.796875 C 20.992188 -15.203125 22.03125 -14.335938 22.90625 -13.203125 C 23.78125 -12.078125 24.21875 -10.625 24.21875 -8.84375 C 24.21875 -7.15625 23.785156 -5.617188 22.921875 -4.234375 C 22.066406 -2.847656 20.816406 -1.742188 19.171875 -0.921875 C 17.535156 -0.109375 15.601562 0.296875 13.375 0.296875 Z M 13.375 0.296875 "/></g></g></g><g fill="#ffffff" fill-opacity="1"><g transform="translate(222.798416, 266.827779)"><g><path d="M 21.125 -5.25 L 10.03125 -5.25 L 8.25 0 L 0.671875 0 L 11.4375 -29.71875 L 19.8125 -29.71875 L 30.578125 0 L 22.90625 0 Z M 19.265625 -10.84375 L 15.578125 -21.71875 L 11.9375 -10.84375 Z M 19.265625 -10.84375 "/></g></g></g><g fill="#ffffff" fill-opacity="1"><g transform="translate(253.99676, 266.827779)"><g><path d="M 13.375 0.296875 C 11.207031 0.296875 9.257812 -0.0546875 7.53125 -0.765625 C 5.8125 -1.472656 4.4375 -2.515625 3.40625 -3.890625 C 2.375 -5.273438 1.832031 -6.941406 1.78125 -8.890625 L 9.484375 -8.890625 C 9.597656 -7.785156 9.976562 -6.941406 10.625 -6.359375 C 11.28125 -5.785156 12.128906 -5.5 13.171875 -5.5 C 14.242188 -5.5 15.085938 -5.742188 15.703125 -6.234375 C 16.328125 -6.734375 16.640625 -7.421875 16.640625 -8.296875 C 16.640625 -9.035156 16.390625 -9.644531 15.890625 -10.125 C 15.398438 -10.601562 14.796875 -10.992188 14.078125 -11.296875 C 13.359375 -11.609375 12.335938 -11.960938 11.015625 -12.359375 C 9.085938 -12.953125 7.515625 -13.546875 6.296875 -14.140625 C 5.085938 -14.734375 4.046875 -15.609375 3.171875 -16.765625 C 2.296875 -17.921875 1.859375 -19.429688 1.859375 -21.296875 C 1.859375 -24.066406 2.859375 -26.234375 4.859375 -27.796875 C 6.867188 -29.367188 9.484375 -30.15625 12.703125 -30.15625 C 15.972656 -30.15625 18.609375 -29.367188 20.609375 -27.796875 C 22.617188 -26.234375 23.695312 -24.050781 23.84375 -21.25 L 16 -21.25 C 15.945312 -22.21875 15.59375 -22.972656 14.9375 -23.515625 C 14.289062 -24.066406 13.460938 -24.34375 12.453125 -24.34375 C 11.578125 -24.34375 10.867188 -24.109375 10.328125 -23.640625 C 9.796875 -23.179688 9.53125 -22.515625 9.53125 -21.640625 C 9.53125 -20.679688 9.976562 -19.929688 10.875 -19.390625 C 11.78125 -18.859375 13.191406 -18.28125 15.109375 -17.65625 C 17.035156 -17.007812 18.597656 -16.390625 19.796875 -15.796875 C 20.992188 -15.203125 22.03125 -14.335938 22.90625 -13.203125 C 23.78125 -12.078125 24.21875 -10.625 24.21875 -8.84375 C 24.21875 -7.15625 23.785156 -5.617188 22.921875 -4.234375 C 22.066406 -2.847656 20.816406 -1.742188 19.171875 -0.921875 C 17.535156 -0.109375 15.601562 0.296875 13.375 0.296875 Z M 13.375 0.296875 "/></g></g></g></svg>