<svg xmlns="http://www.w3.org/2000/svg" xmlns:xlink="http://www.w3.org/1999/xlink" width="500" zoomAndPan="magnify" viewBox="0 0 375 374.999991" height="500" preserveAspectRatio="xMidYMid meet" version="1.0"><defs><g/><clipPath id="a6823a17a6"><path d="M 6.808594 6.808594 L 368.191406 6.808594 L 368.191406 368.191406 L 6.808594 368.191406 Z M 6.808594 6.808594 " clip-rule="nonzero"/></clipPath><clipPath id="a14db1a824"><path d="M 187.5 6.808594 C 87.707031 6.808594 6.808594 87.707031 6.808594 187.5 C 6.808594 287.292969 87.707031 368.191406 187.5 368.191406 C 287.292969 368.191406 368.191406 287.292969 368.191406 187.5 C 368.191406 87.707031 287.292969 6.808594 187.5 6.808594 Z M 187.5 6.808594 " clip-rule="nonzero"/></clipPath><clipPath id="aef6bc1f4d"><path d="M 36.132812 36.132812 L 338.847656 36.132812 L 338.847656 338.847656 L 36.132812 338.847656 Z M 36.132812 36.132812 " clip-rule="nonzero"/></clipPath><clipPath id="9321ef0a78"><path d="M 187.492188 338.847656 C 271.082031 338.847656 338.847656 271.082031 338.847656 187.492188 C 338.847656 103.898438 271.082031 36.132812 187.492188 36.132812 C 103.898438 36.132812 36.132812 103.898438 36.132812 187.492188 C 36.132812 271.082031 103.898438 338.847656 187.492188 338.847656 Z M 187.492188 338.847656 " clip-rule="nonzero"/></clipPath><clipPath id="b6006986d5"><path d="M 124.128906 91 L 274.128906 91 L 274.128906 221.203125 L 124.128906 221.203125 Z M 124.128906 91 " clip-rule="nonzero"/></clipPath></defs><g clip-path="url(#a6823a17a6)"><g clip-path="url(#a14db1a824)"><path fill="#6c9add" d="M 6.808594 6.808594 L 368.191406 6.808594 L 368.191406 368.191406 L 6.808594 368.191406 Z M 6.808594 6.808594 " fill-opacity="1" fill-rule="nonzero"/></g></g><g clip-path="url(#aef6bc1f4d)"><g clip-path="url(#9321ef0a78)"><path fill="#00419e" d="M 338.847656 338.847656 L 36.132812 338.847656 L 36.132812 36.132812 L 338.847656 36.132812 Z M 338.847656 338.847656 " fill-opacity="1" fill-rule="nonzero"/></g></g><g clip-path="url(#b6006986d5)"><path fill="#ffffff" d="M 139.167969 219.671875 C 137.695312 218.679688 136.207031 217.511719 135.863281 217.082031 C 133.589844 214.21875 131.566406 202.359375 132.980469 200.195312 C 133.359375 199.617188 133.828125 198.269531 134.019531 197.199219 C 134.214844 196.128906 134.582031 194.988281 134.835938 194.667969 C 135.664062 193.621094 134.714844 190.515625 133.226562 189.417969 L 131.835938 188.386719 L 133.039062 186.125 C 133.699219 184.882812 134.238281 183.617188 134.238281 183.3125 C 134.234375 182.683594 131.695312 181.066406 129.496094 180.292969 C 128.519531 179.949219 127.648438 179.074219 127 177.785156 C 126.449219 176.695312 125.746094 175.527344 125.441406 175.195312 C 124.632812 174.308594 124.128906 168.90625 124.714844 167.371094 C 125.03125 166.535156 125.035156 165.957031 124.730469 165.765625 C 124.464844 165.601562 124.25 164.980469 124.25 164.382812 C 124.25 162.660156 126.34375 158.070312 127.265625 157.777344 C 127.816406 157.605469 128.03125 157.132812 127.890625 156.398438 C 127.773438 155.785156 127.917969 154.652344 128.210938 153.882812 C 128.683594 152.640625 128.960938 152.496094 130.617188 152.632812 C 132.125 152.757812 132.523438 153.011719 132.652344 153.914062 C 132.777344 154.800781 133.136719 155.039062 134.339844 155.039062 C 135.8125 155.039062 135.859375 154.972656 135.582031 153.265625 C 135.132812 150.488281 137.765625 139.023438 139.78125 135.003906 C 140.597656 133.371094 140.617188 132.980469 139.976562 130.859375 C 139.589844 129.570312 139.40625 127.792969 139.566406 126.914062 C 140.015625 124.492188 142.519531 120.363281 144.613281 118.589844 C 150.355469 113.71875 150.628906 113.574219 153.898438 113.566406 C 158.390625 113.554688 158.410156 113.523438 157.988281 107.898438 C 157.695312 103.992188 157.789062 102.628906 158.503906 100.476562 C 159.695312 96.859375 160.464844 95.816406 162.960938 94.421875 C 168.242188 91.46875 174.496094 90.699219 178.132812 92.554688 C 180.578125 93.800781 180.679688 93.933594 183.914062 100.332031 C 186.820312 106.078125 186.859375 106.679688 184.359375 107.304688 C 183.109375 107.621094 183.074219 107.726562 183.359375 110.46875 C 183.519531 112.03125 183.890625 113.386719 184.183594 113.484375 C 184.480469 113.582031 185.058594 114.316406 185.472656 115.117188 C 186.109375 116.351562 186.519531 116.570312 188.207031 116.570312 C 189.597656 116.570312 190.195312 116.355469 190.195312 115.855469 C 190.195312 115.460938 190.621094 115.003906 191.144531 114.835938 C 191.664062 114.671875 192.222656 114.039062 192.382812 113.429688 C 192.539062 112.820312 193.179688 111.695312 193.804688 110.925781 L 194.941406 109.527344 L 202.933594 110.332031 C 212.191406 111.269531 213.175781 111.554688 213.175781 113.3125 L 213.175781 114.570312 L 248.394531 114.53125 L 250.324219 112.027344 C 252.898438 108.691406 253.808594 108.882812 254.140625 112.828125 L 254.390625 115.820312 L 262.878906 115.671875 C 267.550781 115.589844 271.585938 115.308594 271.847656 115.046875 C 272.109375 114.785156 272.726562 114.570312 273.222656 114.570312 C 273.929688 114.570312 274.121094 114.972656 274.121094 116.445312 L 274.121094 118.320312 L 264.132812 118.148438 C 257.71875 118.039062 254.140625 118.15625 254.140625 118.476562 C 254.140625 118.761719 253.339844 118.867188 252.253906 118.71875 C 250.59375 118.496094 250.230469 118.652344 249.1875 120.007812 C 248.265625 121.210938 247.746094 121.484375 246.824219 121.253906 C 246.171875 121.089844 244.796875 121.140625 243.769531 121.363281 L 241.898438 121.769531 L 244.398438 122.089844 C 246.300781 122.332031 245.589844 122.429688 241.398438 122.503906 L 235.90625 122.601562 L 231.917969 124.972656 C 227.941406 127.335938 223.894531 131.585938 224.382812 132.886719 C 224.5 133.203125 223.515625 135.339844 222.195312 137.632812 C 219.105469 142.988281 218.46875 144.257812 217.328125 147.292969 C 216.570312 149.308594 215.863281 150.152344 213.65625 151.65625 C 212.15625 152.679688 209.691406 153.828125 208.179688 154.210938 L 205.429688 154.898438 L 205.101562 163.335938 C 204.597656 176.214844 201.933594 188.921875 199.1875 191.53125 C 197.972656 192.683594 196.800781 196.292969 197.167969 197.75 C 197.234375 198.027344 197.296875 198.808594 197.304688 199.488281 C 197.308594 200.167969 197.679688 201.292969 198.125 201.984375 C 199.394531 203.957031 204.085938 208.492188 204.851562 208.492188 C 205.972656 208.492188 208.179688 210.484375 208.179688 211.492188 C 208.179688 214.128906 198.824219 213.527344 192.691406 210.492188 C 191.179688 209.746094 188.980469 209.007812 187.800781 208.859375 C 184.640625 208.453125 184.050781 207.761719 184.304688 204.765625 C 184.425781 203.378906 184.878906 201.460938 185.316406 200.5 C 186.136719 198.699219 186.558594 196.863281 187.035156 193.058594 C 187.242188 191.402344 187.121094 190.753906 186.550781 190.4375 C 185.582031 189.894531 185.804688 183.074219 186.925781 179.015625 C 187.34375 177.507812 187.6875 176.074219 187.691406 175.835938 C 187.691406 175.597656 185.605469 177.394531 183.050781 179.832031 C 180.496094 182.269531 176.75 185.371094 174.722656 186.726562 C 171.246094 189.046875 164.183594 192.484375 162.863281 192.5 C 162.050781 192.507812 160.40625 197.980469 159.726562 202.9375 C 159.03125 208.011719 157.671875 211.992188 155.734375 214.628906 C 154.90625 215.757812 154.222656 216.9375 154.222656 217.246094 C 154.222656 217.554688 153.71875 218.273438 153.101562 218.835938 C 150.976562 220.777344 148.90625 221.480469 145.3125 221.480469 C 142.15625 221.480469 141.605469 221.320312 139.167969 219.671875 Z M 134.148438 156.566406 C 134.273438 156.195312 134.085938 156.007812 133.710938 156.132812 C 133.351562 156.25 132.957031 156.644531 132.835938 157.003906 C 132.710938 157.378906 132.898438 157.566406 133.273438 157.441406 C 133.632812 157.320312 134.027344 156.929688 134.148438 156.566406 Z M 187.320312 152.617188 C 188.902344 151.699219 190.191406 150.800781 190.1875 150.621094 C 190.179688 150.164062 184.683594 146.390625 184.417969 146.660156 C 183.964844 147.113281 183.554688 154.667969 183.996094 154.480469 C 184.246094 154.375 185.742188 153.535156 187.320312 152.617188 Z M 206.582031 138.050781 C 210.28125 136.890625 211.421875 136.070312 217.472656 130.214844 C 221.476562 126.339844 223.164062 124.300781 223.164062 123.347656 C 223.164062 122.578125 219.953125 123.292969 215.921875 124.960938 L 211.425781 126.820312 L 211.277344 129.859375 L 211.132812 132.894531 L 204.226562 134.378906 L 204.078125 131.59375 L 203.933594 128.8125 L 201.058594 128.660156 C 198.320312 128.519531 198.1875 128.566406 198.1875 129.707031 C 198.1875 130.367188 197.847656 131.585938 197.429688 132.421875 C 196.445312 134.398438 196.84375 135.292969 199.632812 137.339844 C 202.335938 139.320312 202.484375 139.335938 206.582031 138.050781 Z M 203.027344 127.519531 C 203.933594 126.613281 203.195312 125.0625 201.859375 125.0625 C 200.820312 125.0625 200.683594 125.253906 200.875 126.4375 C 201 127.191406 201.121094 127.867188 201.144531 127.9375 C 201.257812 128.28125 202.550781 127.992188 203.027344 127.519531 Z M 211.769531 114.179688 C 212.011719 113.9375 212.0625 113.367188 211.886719 112.90625 C 211.613281 112.191406 210.683594 112.074219 205.160156 112.074219 C 199.203125 112.074219 198.730469 112.144531 198.4375 113.070312 C 198.265625 113.617188 198.226562 114.234375 198.355469 114.441406 C 198.679688 114.96875 211.230469 114.71875 211.769531 114.179688 Z M 252.871094 113.449219 C 252.40625 111.261719 252.324219 111.226562 250.890625 112.574219 C 249.109375 114.25 249.289062 115.070312 251.433594 115.070312 C 253.1875 115.070312 253.214844 115.042969 252.871094 113.449219 Z M 252.871094 113.449219 " fill-opacity="1" fill-rule="nonzero"/></g><g fill="#000000" fill-opacity="0.9412"><g transform="translate(78.551649, 261.838826)"><g><path d="M 11.484375 -24.8125 C 14.097656 -24.8125 16.382812 -24.289062 18.34375 -23.25 C 20.300781 -22.21875 21.816406 -20.765625 22.890625 -18.890625 C 23.960938 -17.015625 24.5 -14.851562 24.5 -12.40625 C 24.5 -9.976562 23.960938 -7.820312 22.890625 -5.9375 C 21.816406 -4.050781 20.296875 -2.585938 18.328125 -1.546875 C 16.359375 -0.515625 14.078125 0 11.484375 0 L 2.1875 0 L 2.1875 -24.8125 Z M 11.09375 -5.234375 C 13.382812 -5.234375 15.164062 -5.859375 16.4375 -7.109375 C 17.707031 -8.359375 18.34375 -10.125 18.34375 -12.40625 C 18.34375 -14.6875 17.707031 -16.460938 16.4375 -17.734375 C 15.164062 -19.015625 13.382812 -19.65625 11.09375 -19.65625 L 8.234375 -19.65625 L 8.234375 -5.234375 Z M 11.09375 -5.234375 "/></g></g></g><g fill="#000000" fill-opacity="0.9412"><g transform="translate(104.238026, 261.838826)"><g><path d="M 8.234375 -19.96875 L 8.234375 -14.953125 L 16.328125 -14.953125 L 16.328125 -10.28125 L 8.234375 -10.28125 L 8.234375 -4.84375 L 17.390625 -4.84375 L 17.390625 0 L 2.1875 0 L 2.1875 -24.8125 L 17.390625 -24.8125 L 17.390625 -19.96875 Z M 8.234375 -19.96875 "/></g></g></g><g fill="#000000" fill-opacity="0.9412"><g transform="translate(123.352645, 261.838826)"><g><path d="M 11.171875 0.25 C 9.359375 0.25 7.734375 -0.0390625 6.296875 -0.625 C 4.859375 -1.21875 3.707031 -2.09375 2.84375 -3.25 C 1.988281 -4.40625 1.535156 -5.796875 1.484375 -7.421875 L 7.921875 -7.421875 C 8.015625 -6.503906 8.332031 -5.800781 8.875 -5.3125 C 9.414062 -4.832031 10.117188 -4.59375 10.984375 -4.59375 C 11.878906 -4.59375 12.585938 -4.796875 13.109375 -5.203125 C 13.628906 -5.617188 13.890625 -6.191406 13.890625 -6.921875 C 13.890625 -7.535156 13.679688 -8.039062 13.265625 -8.4375 C 12.859375 -8.84375 12.351562 -9.175781 11.75 -9.4375 C 11.144531 -9.695312 10.289062 -9.992188 9.1875 -10.328125 C 7.582031 -10.816406 6.273438 -11.304688 5.265625 -11.796875 C 4.253906 -12.296875 3.382812 -13.023438 2.65625 -13.984375 C 1.925781 -14.953125 1.5625 -16.21875 1.5625 -17.78125 C 1.5625 -20.082031 2.394531 -21.890625 4.0625 -23.203125 C 5.738281 -24.515625 7.921875 -25.171875 10.609375 -25.171875 C 13.335938 -25.171875 15.535156 -24.515625 17.203125 -23.203125 C 18.878906 -21.890625 19.78125 -20.070312 19.90625 -17.75 L 13.359375 -17.75 C 13.316406 -18.539062 13.019531 -19.164062 12.46875 -19.625 C 11.925781 -20.09375 11.234375 -20.328125 10.390625 -20.328125 C 9.660156 -20.328125 9.070312 -20.128906 8.625 -19.734375 C 8.175781 -19.347656 7.953125 -18.789062 7.953125 -18.0625 C 7.953125 -17.257812 8.328125 -16.632812 9.078125 -16.1875 C 9.835938 -15.738281 11.019531 -15.253906 12.625 -14.734375 C 14.21875 -14.191406 15.515625 -13.671875 16.515625 -13.171875 C 17.523438 -12.679688 18.394531 -11.960938 19.125 -11.015625 C 19.851562 -10.078125 20.21875 -8.867188 20.21875 -7.390625 C 20.21875 -5.972656 19.859375 -4.6875 19.140625 -3.53125 C 18.421875 -2.375 17.375 -1.453125 16 -0.765625 C 14.632812 -0.0859375 13.023438 0.25 11.171875 0.25 Z M 11.171875 0.25 "/></g></g></g><g fill="#000000" fill-opacity="0.9412"><g transform="translate(145.081838, 261.838826)"><g><path d="M 17.640625 -4.375 L 8.375 -4.375 L 6.890625 0 L 0.5625 0 L 9.546875 -24.8125 L 16.546875 -24.8125 L 25.515625 0 L 19.125 0 Z M 16.078125 -9.046875 L 13 -18.125 L 9.96875 -9.046875 Z M 16.078125 -9.046875 "/></g></g></g><g fill="#000000" fill-opacity="0.9412"><g transform="translate(171.121539, 261.838826)"><g><path d="M 14.84375 0 L 9.6875 -9.359375 L 8.234375 -9.359375 L 8.234375 0 L 2.1875 0 L 2.1875 -24.8125 L 12.328125 -24.8125 C 14.285156 -24.8125 15.953125 -24.46875 17.328125 -23.78125 C 18.710938 -23.101562 19.742188 -22.164062 20.421875 -20.96875 C 21.109375 -19.78125 21.453125 -18.457031 21.453125 -17 C 21.453125 -15.351562 20.984375 -13.878906 20.046875 -12.578125 C 19.117188 -11.285156 17.75 -10.367188 15.9375 -9.828125 L 21.671875 0 Z M 8.234375 -13.640625 L 11.984375 -13.640625 C 13.085938 -13.640625 13.914062 -13.910156 14.46875 -14.453125 C 15.019531 -14.992188 15.296875 -15.757812 15.296875 -16.75 C 15.296875 -17.695312 15.019531 -18.441406 14.46875 -18.984375 C 13.914062 -19.523438 13.085938 -19.796875 11.984375 -19.796875 L 8.234375 -19.796875 Z M 8.234375 -13.640625 "/></g></g></g><g fill="#000000" fill-opacity="0.9412"><g transform="translate(194.158014, 261.838826)"><g><path d="M 14.84375 0 L 9.6875 -9.359375 L 8.234375 -9.359375 L 8.234375 0 L 2.1875 0 L 2.1875 -24.8125 L 12.328125 -24.8125 C 14.285156 -24.8125 15.953125 -24.46875 17.328125 -23.78125 C 18.710938 -23.101562 19.742188 -22.164062 20.421875 -20.96875 C 21.109375 -19.78125 21.453125 -18.457031 21.453125 -17 C 21.453125 -15.351562 20.984375 -13.878906 20.046875 -12.578125 C 19.117188 -11.285156 17.75 -10.367188 15.9375 -9.828125 L 21.671875 0 Z M 8.234375 -13.640625 L 11.984375 -13.640625 C 13.085938 -13.640625 13.914062 -13.910156 14.46875 -14.453125 C 15.019531 -14.992188 15.296875 -15.757812 15.296875 -16.75 C 15.296875 -17.695312 15.019531 -18.441406 14.46875 -18.984375 C 13.914062 -19.523438 13.085938 -19.796875 11.984375 -19.796875 L 8.234375 -19.796875 Z M 8.234375 -13.640625 "/></g></g></g><g fill="#000000" fill-opacity="0.9412"><g transform="translate(217.194489, 261.838826)"><g><path d="M 13.921875 0.25 C 11.585938 0.25 9.445312 -0.289062 7.5 -1.375 C 5.5625 -2.457031 4.019531 -3.96875 2.875 -5.90625 C 1.738281 -7.851562 1.171875 -10.039062 1.171875 -12.46875 C 1.171875 -14.894531 1.738281 -17.070312 2.875 -19 C 4.019531 -20.9375 5.5625 -22.445312 7.5 -23.53125 C 9.445312 -24.625 11.585938 -25.171875 13.921875 -25.171875 C 16.253906 -25.171875 18.390625 -24.625 20.328125 -23.53125 C 22.273438 -22.445312 23.804688 -20.9375 24.921875 -19 C 26.046875 -17.070312 26.609375 -14.894531 26.609375 -12.46875 C 26.609375 -10.039062 26.039062 -7.851562 24.90625 -5.90625 C 23.78125 -3.96875 22.25 -2.457031 20.3125 -1.375 C 18.382812 -0.289062 16.253906 0.25 13.921875 0.25 Z M 13.921875 -5.265625 C 15.898438 -5.265625 17.484375 -5.921875 18.671875 -7.234375 C 19.867188 -8.554688 20.46875 -10.300781 20.46875 -12.46875 C 20.46875 -14.664062 19.867188 -16.414062 18.671875 -17.71875 C 17.484375 -19.03125 15.898438 -19.6875 13.921875 -19.6875 C 11.921875 -19.6875 10.320312 -19.035156 9.125 -17.734375 C 7.9375 -16.441406 7.34375 -14.6875 7.34375 -12.46875 C 7.34375 -10.28125 7.9375 -8.53125 9.125 -7.21875 C 10.320312 -5.914062 11.921875 -5.265625 13.921875 -5.265625 Z M 13.921875 -5.265625 "/></g></g></g><g fill="#000000" fill-opacity="0.9412"><g transform="translate(244.965453, 261.838826)"><g><path d="M 8.234375 -4.671875 L 16.15625 -4.671875 L 16.15625 0 L 2.1875 0 L 2.1875 -24.8125 L 8.234375 -24.8125 Z M 8.234375 -4.671875 "/></g></g></g><g fill="#000000" fill-opacity="0.9412"><g transform="translate(261.818823, 261.838826)"><g><path d="M 8.234375 -4.671875 L 16.15625 -4.671875 L 16.15625 0 L 2.1875 0 L 2.1875 -24.8125 L 8.234375 -24.8125 Z M 8.234375 -4.671875 "/></g></g></g><g fill="#000000" fill-opacity="0.9412"><g transform="translate(278.672181, 261.838826)"><g><path d="M 13.921875 0.25 C 11.585938 0.25 9.445312 -0.289062 7.5 -1.375 C 5.5625 -2.457031 4.019531 -3.96875 2.875 -5.90625 C 1.738281 -7.851562 1.171875 -10.039062 1.171875 -12.46875 C 1.171875 -14.894531 1.738281 -17.070312 2.875 -19 C 4.019531 -20.9375 5.5625 -22.445312 7.5 -23.53125 C 9.445312 -24.625 11.585938 -25.171875 13.921875 -25.171875 C 16.253906 -25.171875 18.390625 -24.625 20.328125 -23.53125 C 22.273438 -22.445312 23.804688 -20.9375 24.921875 -19 C 26.046875 -17.070312 26.609375 -14.894531 26.609375 -12.46875 C 26.609375 -10.039062 26.039062 -7.851562 24.90625 -5.90625 C 23.78125 -3.96875 22.25 -2.457031 20.3125 -1.375 C 18.382812 -0.289062 16.253906 0.25 13.921875 0.25 Z M 13.921875 -5.265625 C 15.898438 -5.265625 17.484375 -5.921875 18.671875 -7.234375 C 19.867188 -8.554688 20.46875 -10.300781 20.46875 -12.46875 C 20.46875 -14.664062 19.867188 -16.414062 18.671875 -17.71875 C 17.484375 -19.03125 15.898438 -19.6875 13.921875 -19.6875 C 11.921875 -19.6875 10.320312 -19.035156 9.125 -17.734375 C 7.9375 -16.441406 7.34375 -14.6875 7.34375 -12.46875 C 7.34375 -10.28125 7.9375 -8.53125 9.125 -7.21875 C 10.320312 -5.914062 11.921875 -5.265625 13.921875 -5.265625 Z M 13.921875 -5.265625 "/></g></g></g><g fill="#ffffff" fill-opacity="1"><g transform="translate(77.800833, 259.528049)"><g><path d="M 11.484375 -24.8125 C 14.097656 -24.8125 16.382812 -24.289062 18.34375 -23.25 C 20.300781 -22.21875 21.816406 -20.765625 22.890625 -18.890625 C 23.960938 -17.015625 24.5 -14.851562 24.5 -12.40625 C 24.5 -9.976562 23.960938 -7.820312 22.890625 -5.9375 C 21.816406 -4.050781 20.296875 -2.585938 18.328125 -1.546875 C 16.359375 -0.515625 14.078125 0 11.484375 0 L 2.1875 0 L 2.1875 -24.8125 Z M 11.09375 -5.234375 C 13.382812 -5.234375 15.164062 -5.859375 16.4375 -7.109375 C 17.707031 -8.359375 18.34375 -10.125 18.34375 -12.40625 C 18.34375 -14.6875 17.707031 -16.460938 16.4375 -17.734375 C 15.164062 -19.015625 13.382812 -19.65625 11.09375 -19.65625 L 8.234375 -19.65625 L 8.234375 -5.234375 Z M 11.09375 -5.234375 "/></g></g></g><g fill="#ffffff" fill-opacity="1"><g transform="translate(103.48721, 259.528049)"><g><path d="M 8.234375 -19.96875 L 8.234375 -14.953125 L 16.328125 -14.953125 L 16.328125 -10.28125 L 8.234375 -10.28125 L 8.234375 -4.84375 L 17.390625 -4.84375 L 17.390625 0 L 2.1875 0 L 2.1875 -24.8125 L 17.390625 -24.8125 L 17.390625 -19.96875 Z M 8.234375 -19.96875 "/></g></g></g><g fill="#ffffff" fill-opacity="1"><g transform="translate(122.601829, 259.528049)"><g><path d="M 11.171875 0.25 C 9.359375 0.25 7.734375 -0.0390625 6.296875 -0.625 C 4.859375 -1.21875 3.707031 -2.09375 2.84375 -3.25 C 1.988281 -4.40625 1.535156 -5.796875 1.484375 -7.421875 L 7.921875 -7.421875 C 8.015625 -6.503906 8.332031 -5.800781 8.875 -5.3125 C 9.414062 -4.832031 10.117188 -4.59375 10.984375 -4.59375 C 11.878906 -4.59375 12.585938 -4.796875 13.109375 -5.203125 C 13.628906 -5.617188 13.890625 -6.191406 13.890625 -6.921875 C 13.890625 -7.535156 13.679688 -8.039062 13.265625 -8.4375 C 12.859375 -8.84375 12.351562 -9.175781 11.75 -9.4375 C 11.144531 -9.695312 10.289062 -9.992188 9.1875 -10.328125 C 7.582031 -10.816406 6.273438 -11.304688 5.265625 -11.796875 C 4.253906 -12.296875 3.382812 -13.023438 2.65625 -13.984375 C 1.925781 -14.953125 1.5625 -16.21875 1.5625 -17.78125 C 1.5625 -20.082031 2.394531 -21.890625 4.0625 -23.203125 C 5.738281 -24.515625 7.921875 -25.171875 10.609375 -25.171875 C 13.335938 -25.171875 15.535156 -24.515625 17.203125 -23.203125 C 18.878906 -21.890625 19.78125 -20.070312 19.90625 -17.75 L 13.359375 -17.75 C 13.316406 -18.539062 13.019531 -19.164062 12.46875 -19.625 C 11.925781 -20.09375 11.234375 -20.328125 10.390625 -20.328125 C 9.660156 -20.328125 9.070312 -20.128906 8.625 -19.734375 C 8.175781 -19.347656 7.953125 -18.789062 7.953125 -18.0625 C 7.953125 -17.257812 8.328125 -16.632812 9.078125 -16.1875 C 9.835938 -15.738281 11.019531 -15.253906 12.625 -14.734375 C 14.21875 -14.191406 15.515625 -13.671875 16.515625 -13.171875 C 17.523438 -12.679688 18.394531 -11.960938 19.125 -11.015625 C 19.851562 -10.078125 20.21875 -8.867188 20.21875 -7.390625 C 20.21875 -5.972656 19.859375 -4.6875 19.140625 -3.53125 C 18.421875 -2.375 17.375 -1.453125 16 -0.765625 C 14.632812 -0.0859375 13.023438 0.25 11.171875 0.25 Z M 11.171875 0.25 "/></g></g></g><g fill="#ffffff" fill-opacity="1"><g transform="translate(144.331022, 259.528049)"><g><path d="M 17.640625 -4.375 L 8.375 -4.375 L 6.890625 0 L 0.5625 0 L 9.546875 -24.8125 L 16.546875 -24.8125 L 25.515625 0 L 19.125 0 Z M 16.078125 -9.046875 L 13 -18.125 L 9.96875 -9.046875 Z M 16.078125 -9.046875 "/></g></g></g><g fill="#ffffff" fill-opacity="1"><g transform="translate(170.370724, 259.528049)"><g><path d="M 14.84375 0 L 9.6875 -9.359375 L 8.234375 -9.359375 L 8.234375 0 L 2.1875 0 L 2.1875 -24.8125 L 12.328125 -24.8125 C 14.285156 -24.8125 15.953125 -24.46875 17.328125 -23.78125 C 18.710938 -23.101562 19.742188 -22.164062 20.421875 -20.96875 C 21.109375 -19.78125 21.453125 -18.457031 21.453125 -17 C 21.453125 -15.351562 20.984375 -13.878906 20.046875 -12.578125 C 19.117188 -11.285156 17.75 -10.367188 15.9375 -9.828125 L 21.671875 0 Z M 8.234375 -13.640625 L 11.984375 -13.640625 C 13.085938 -13.640625 13.914062 -13.910156 14.46875 -14.453125 C 15.019531 -14.992188 15.296875 -15.757812 15.296875 -16.75 C 15.296875 -17.695312 15.019531 -18.441406 14.46875 -18.984375 C 13.914062 -19.523438 13.085938 -19.796875 11.984375 -19.796875 L 8.234375 -19.796875 Z M 8.234375 -13.640625 "/></g></g></g><g fill="#ffffff" fill-opacity="1"><g transform="translate(193.407198, 259.528049)"><g><path d="M 14.84375 0 L 9.6875 -9.359375 L 8.234375 -9.359375 L 8.234375 0 L 2.1875 0 L 2.1875 -24.8125 L 12.328125 -24.8125 C 14.285156 -24.8125 15.953125 -24.46875 17.328125 -23.78125 C 18.710938 -23.101562 19.742188 -22.164062 20.421875 -20.96875 C 21.109375 -19.78125 21.453125 -18.457031 21.453125 -17 C 21.453125 -15.351562 20.984375 -13.878906 20.046875 -12.578125 C 19.117188 -11.285156 17.75 -10.367188 15.9375 -9.828125 L 21.671875 0 Z M 8.234375 -13.640625 L 11.984375 -13.640625 C 13.085938 -13.640625 13.914062 -13.910156 14.46875 -14.453125 C 15.019531 -14.992188 15.296875 -15.757812 15.296875 -16.75 C 15.296875 -17.695312 15.019531 -18.441406 14.46875 -18.984375 C 13.914062 -19.523438 13.085938 -19.796875 11.984375 -19.796875 L 8.234375 -19.796875 Z M 8.234375 -13.640625 "/></g></g></g><g fill="#ffffff" fill-opacity="1"><g transform="translate(216.443673, 259.528049)"><g><path d="M 13.921875 0.25 C 11.585938 0.25 9.445312 -0.289062 7.5 -1.375 C 5.5625 -2.457031 4.019531 -3.96875 2.875 -5.90625 C 1.738281 -7.851562 1.171875 -10.039062 1.171875 -12.46875 C 1.171875 -14.894531 1.738281 -17.070312 2.875 -19 C 4.019531 -20.9375 5.5625 -22.445312 7.5 -23.53125 C 9.445312 -24.625 11.585938 -25.171875 13.921875 -25.171875 C 16.253906 -25.171875 18.390625 -24.625 20.328125 -23.53125 C 22.273438 -22.445312 23.804688 -20.9375 24.921875 -19 C 26.046875 -17.070312 26.609375 -14.894531 26.609375 -12.46875 C 26.609375 -10.039062 26.039062 -7.851562 24.90625 -5.90625 C 23.78125 -3.96875 22.25 -2.457031 20.3125 -1.375 C 18.382812 -0.289062 16.253906 0.25 13.921875 0.25 Z M 13.921875 -5.265625 C 15.898438 -5.265625 17.484375 -5.921875 18.671875 -7.234375 C 19.867188 -8.554688 20.46875 -10.300781 20.46875 -12.46875 C 20.46875 -14.664062 19.867188 -16.414062 18.671875 -17.71875 C 17.484375 -19.03125 15.898438 -19.6875 13.921875 -19.6875 C 11.921875 -19.6875 10.320312 -19.035156 9.125 -17.734375 C 7.9375 -16.441406 7.34375 -14.6875 7.34375 -12.46875 C 7.34375 -10.28125 7.9375 -8.53125 9.125 -7.21875 C 10.320312 -5.914062 11.921875 -5.265625 13.921875 -5.265625 Z M 13.921875 -5.265625 "/></g></g></g><g fill="#ffffff" fill-opacity="1"><g transform="translate(244.214637, 259.528049)"><g><path d="M 8.234375 -4.671875 L 16.15625 -4.671875 L 16.15625 0 L 2.1875 0 L 2.1875 -24.8125 L 8.234375 -24.8125 Z M 8.234375 -4.671875 "/></g></g></g><g fill="#ffffff" fill-opacity="1"><g transform="translate(261.068007, 259.528049)"><g><path d="M 8.234375 -4.671875 L 16.15625 -4.671875 L 16.15625 0 L 2.1875 0 L 2.1875 -24.8125 L 8.234375 -24.8125 Z M 8.234375 -4.671875 "/></g></g></g><g fill="#ffffff" fill-opacity="1"><g transform="translate(277.921365, 259.528049)"><g><path d="M 13.921875 0.25 C 11.585938 0.25 9.445312 -0.289062 7.5 -1.375 C 5.5625 -2.457031 4.019531 -3.96875 2.875 -5.90625 C 1.738281 -7.851562 1.171875 -10.039062 1.171875 -12.46875 C 1.171875 -14.894531 1.738281 -17.070312 2.875 -19 C 4.019531 -20.9375 5.5625 -22.445312 7.5 -23.53125 C 9.445312 -24.625 11.585938 -25.171875 13.921875 -25.171875 C 16.253906 -25.171875 18.390625 -24.625 20.328125 -23.53125 C 22.273438 -22.445312 23.804688 -20.9375 24.921875 -19 C 26.046875 -17.070312 26.609375 -14.894531 26.609375 -12.46875 C 26.609375 -10.039062 26.039062 -7.851562 24.90625 -5.90625 C 23.78125 -3.96875 22.25 -2.457031 20.3125 -1.375 C 18.382812 -0.289062 16.253906 0.25 13.921875 0.25 Z M 13.921875 -5.265625 C 15.898438 -5.265625 17.484375 -5.921875 18.671875 -7.234375 C 19.867188 -8.554688 20.46875 -10.300781 20.46875 -12.46875 C 20.46875 -14.664062 19.867188 -16.414062 18.671875 -17.71875 C 17.484375 -19.03125 15.898438 -19.6875 13.921875 -19.6875 C 11.921875 -19.6875 10.320312 -19.035156 9.125 -17.734375 C 7.9375 -16.441406 7.34375 -14.6875 7.34375 -12.46875 C 7.34375 -10.28125 7.9375 -8.53125 9.125 -7.21875 C 10.320312 -5.914062 11.921875 -5.265625 13.921875 -5.265625 Z M 13.921875 -5.265625 "/></g></g></g></svg>